<svg width="4960" height="8769" xmlns="http://www.w3.org/2000/svg">

<path d="M 1020.7538 1365.6241 A 1328.7401574803148 1328.7401574803148 0 0 0 2899.8762 1365.6241 " stroke="blue" fill="none" />
<path d="M 2060.1238 1365.6241 A 1328.7401574803148 1328.7401574803148 0 0 0 3939.2463 1365.6241 " stroke="blue" fill="none" />
<path d="M 1540.4388 2404.9941 A 1328.7401574803148 1328.7401574803148 0 0 0 3419.5613 2404.9941 " stroke="blue" fill="none" />
<path d="M 1280.5963 1885.3092 A 1328.7401574803148 1328.7401574803148 0 0 0 3159.7188 1885.3092 " stroke="blue" fill="none" />
<path d="M 1540.4388 1365.6241 A 1328.7401574803148 1328.7401574803148 0 0 0 3419.5613 1365.6241 " stroke="blue" fill="none" />
<path d="M 1800.2814 1885.3092 A 1328.7401574803148 1328.7401574803148 0 0 0 3679.4038 1885.3092 " stroke="blue" fill="none" />
<path d="M 1150.675 1625.4667 A 1328.7401574803148 1328.7401574803148 0 0 0 3029.7974 1625.4667 " stroke="blue" fill="none" />
<path d="M 1800.2814 1365.6241 A 1328.7401574803148 1328.7401574803148 0 0 0 3679.4038 1365.6241 " stroke="blue" fill="none" />
<path d="M 1930.2026 1625.4667 A 1328.7401574803148 1328.7401574803148 0 0 0 3809.325 1625.4667 " stroke="blue" fill="none" />
<path d="M 1410.5176 2145.1516 A 1328.7401574803148 1328.7401574803148 0 0 0 3289.64 2145.1516 " stroke="blue" fill="none" />
<path d="M 1280.5963 1365.6241 A 1328.7401574803148 1328.7401574803148 0 0 0 3159.7188 1365.6241 " stroke="blue" fill="none" />
<path d="M 1670.3601 2145.1516 A 1328.7401574803148 1328.7401574803148 0 0 0 3549.4824 2145.1516 " stroke="blue" fill="none" />
<path d="M 1644.8345 1780.9136 A 1181.1023622047244 1181.1023622047244 0 0 0 3315.1655 1780.9136 " stroke="blue" fill="none" />
<path d="M 1692.0786 1780.9136 A 1181.1023622047244 1181.1023622047244 0 0 0 3362.4097 1780.9136 " stroke="blue" fill="none" />
<path d="M 1597.5905 1780.9136 A 1181.1023622047244 1181.1023622047244 0 0 0 3267.9214 1780.9136 " stroke="blue" fill="none" />
<path d="M 1644.8345 1733.6694 A 1181.1023622047244 1181.1023622047244 0 0 0 3315.1655 1733.6694 " stroke="blue" fill="none" />
<path d="M 1644.8345 1828.1576 A 1181.1023622047244 1181.1023622047244 0 0 0 3315.1655 1828.1576 " stroke="blue" fill="none" />
<path d="M 2051.9778 1373.7704 A 605.3149608499187 605.3149608499187 0 0 0 2908.0222 1373.7704 " stroke="blue" fill="none" />
<path d="M 2010.2194 1415.5286 A 664.3700798401447 664.3700798401447 0 0 0 2949.7805 1415.5286 " stroke="blue" fill="none" />
<path d="M 1958.0216 1892.9233 A 738.1889763779527 738.1889763779527 0 0 0 3001.9785 1892.9233 " stroke="blue" fill="none" />
<path d="M 1657.3619 1768.3861 A 738.1889763779527 738.1889763779527 0 0 0 2701.3188 1768.3861 " stroke="blue" fill="none" />
<path d="M 1532.8247 1467.7264 A 738.1889763779527 738.1889763779527 0 0 0 2576.7815 1467.7264 " stroke="blue" fill="none" />
<path d="M 1657.3619 1167.0668 A 738.1889763779527 738.1889763779527 0 0 0 2701.3188 1167.0668 " stroke="blue" fill="none" />
<path d="M 1958.0216 1042.5297 A 738.1889763779527 738.1889763779527 0 0 0 3001.9785 1042.5297 " stroke="blue" fill="none" />
<path d="M 2258.6812 1167.0668 A 738.1889763779527 738.1889763779527 0 0 0 3302.6382 1167.0668 " stroke="blue" fill="none" />
<path d="M 2383.2185 1467.7264 A 738.1889763779527 738.1889763779527 0 0 0 3427.1753 1467.7264 " stroke="blue" fill="none" />
<path d="M 2258.6812 1768.3861 A 738.1889763779527 738.1889763779527 0 0 0 3302.6382 1768.3861 " stroke="blue" fill="none" />
<path d="M 1807.6919 1830.6545 A 738.1889763779527 738.1889763779527 0 0 0 2851.649 1830.6545 " stroke="blue" fill="none" />
<path d="M 1595.0935 1618.056 A 738.1889763779527 738.1889763779527 0 0 0 2639.0503 1618.056 " stroke="blue" fill="none" />
<path d="M 1595.0935 1317.3969 A 738.1889763779527 738.1889763779527 0 0 0 2639.0503 1317.3969 " stroke="blue" fill="none" />
<path d="M 1807.6919 1104.7985 A 738.1889763779527 738.1889763779527 0 0 0 2851.649 1104.7985 " stroke="blue" fill="none" />
<path d="M 2108.351 1104.7985 A 738.1889763779527 738.1889763779527 0 0 0 3152.308 1104.7985 " stroke="blue" fill="none" />
<path d="M 2320.9497 1317.3969 A 738.1889763779527 738.1889763779527 0 0 0 3364.9065 1317.3969 " stroke="blue" fill="none" />
<path d="M 2320.9497 1618.056 A 738.1889763779527 738.1889763779527 0 0 0 3364.9065 1618.056 " stroke="blue" fill="none" />
<path d="M 2108.351 1830.6545 A 738.1889763779527 738.1889763779527 0 0 0 3152.308 1830.6545 " stroke="blue" fill="none" />
<path d="M 1172.3936 1308.4725 A 1181.1023622047244 1181.1023622047244 0 0 0 2842.7246 1308.4725 " stroke="blue" fill="none" />
<path d="M 2117.2754 1308.4725 A 1181.1023622047244 1181.1023622047244 0 0 0 3787.6064 1308.4725 " stroke="blue" fill="none" />
<path d="M 1172.3936 2253.3545 A 1181.1023622047244 1181.1023622047244 0 0 0 2842.7246 2253.3545 " stroke="blue" fill="none" />
<path d="M 2117.2754 2253.3545 A 1181.1023622047244 1181.1023622047244 0 0 0 3787.6064 2253.3545 " stroke="blue" fill="none" />
<path d="M 1172.3936 1780.9136 A 1181.1023622047244 1181.1023622047244 0 0 0 2842.7246 1780.9136 " stroke="blue" fill="none" />
<path d="M 1172.3936 1544.693 A 1181.1023622047244 1181.1023622047244 0 0 0 2842.7246 1544.693 " stroke="blue" fill="none" />
<path d="M 1172.3936 2017.134 A 1181.1023622047244 1181.1023622047244 0 0 0 2842.7246 2017.134 " stroke="blue" fill="none" />
<path d="M 1644.8345 2253.3545 A 1181.1023622047244 1181.1023622047244 0 0 0 3315.1655 2253.3545 " stroke="blue" fill="none" />
<path d="M 1408.614 2253.3545 A 1181.1023622047244 1181.1023622047244 0 0 0 3078.945 2253.3545 " stroke="blue" fill="none" />
<path d="M 1881.0549 2253.3545 A 1181.1023622047244 1181.1023622047244 0 0 0 3551.386 2253.3545 " stroke="blue" fill="none" />
<path d="M 2117.2754 1780.9136 A 1181.1023622047244 1181.1023622047244 0 0 0 3787.6064 1780.9136 " stroke="blue" fill="none" />
<path d="M 2117.2754 2017.134 A 1181.1023622047244 1181.1023622047244 0 0 0 3787.6064 2017.134 " stroke="blue" fill="none" />
<path d="M 2117.2754 1544.693 A 1181.1023622047244 1181.1023622047244 0 0 0 3787.6064 1544.693 " stroke="blue" fill="none" />
<path d="M 1644.8345 1308.4725 A 1181.1023622047244 1181.1023622047244 0 0 0 3315.1655 1308.4725 " stroke="blue" fill="none" />
<path d="M 1881.0549 1308.4725 A 1181.1023622047244 1181.1023622047244 0 0 0 3551.386 1308.4725 " stroke="blue" fill="none" />
<path d="M 1408.614 1308.4725 A 1181.1023622047244 1181.1023622047244 0 0 0 3078.945 1308.4725 " stroke="blue" fill="none" />
<path d="M 1172.3936 1426.5828 A 1181.1023622047244 1181.1023622047244 0 0 0 2842.7246 1426.5828 " stroke="blue" fill="none" />
<path d="M 1999.1652 1308.4725 A 1181.1023622047244 1181.1023622047244 0 0 0 3669.496 1308.4725 " stroke="blue" fill="none" />
<path d="M 2117.2754 2135.2441 A 1181.1023622047244 1181.1023622047244 0 0 0 3787.6064 2135.2441 " stroke="blue" fill="none" />
<path d="M 1290.5038 2253.3545 A 1181.1023622047244 1181.1023622047244 0 0 0 2960.8347 2253.3545 " stroke="blue" fill="none" />
<path d="M 1172.3936 1899.0238 A 1181.1023622047244 1181.1023622047244 0 0 0 2842.7246 1899.0238 " stroke="blue" fill="none" />
<path d="M 1172.3936 1662.8033 A 1181.1023622047244 1181.1023622047244 0 0 0 2842.7246 1662.8033 " stroke="blue" fill="none" />
<path d="M 1172.3936 2135.2441 A 1181.1023622047244 1181.1023622047244 0 0 0 2842.7246 2135.2441 " stroke="blue" fill="none" />
<path d="M 1762.9447 2253.3545 A 1181.1023622047244 1181.1023622047244 0 0 0 3433.2756 2253.3545 " stroke="blue" fill="none" />
<path d="M 1526.7242 2253.3545 A 1181.1023622047244 1181.1023622047244 0 0 0 3197.0552 2253.3545 " stroke="blue" fill="none" />
<path d="M 1999.1652 2253.3545 A 1181.1023622047244 1181.1023622047244 0 0 0 3669.496 2253.3545 " stroke="blue" fill="none" />
<path d="M 2117.2754 1662.8033 A 1181.1023622047244 1181.1023622047244 0 0 0 3787.6064 1662.8033 " stroke="blue" fill="none" />
<path d="M 2117.2754 1899.0238 A 1181.1023622047244 1181.1023622047244 0 0 0 3787.6064 1899.0238 " stroke="blue" fill="none" />
<path d="M 2117.2754 1426.5828 A 1181.1023622047244 1181.1023622047244 0 0 0 3787.6064 1426.5828 " stroke="blue" fill="none" />
<path d="M 1526.7242 1308.4725 A 1181.1023622047244 1181.1023622047244 0 0 0 3197.0552 1308.4725 " stroke="blue" fill="none" />
<path d="M 1762.9447 1308.4725 A 1181.1023622047244 1181.1023622047244 0 0 0 3433.2756 1308.4725 " stroke="blue" fill="none" />
<path d="M 1290.5038 1308.4725 A 1181.1023622047244 1181.1023622047244 0 0 0 2960.8347 1308.4725 " stroke="blue" fill="none" />
<!-- radmm = 25 -->
<!-- dimensionCubemm = 40.0 -->
<!-- adjustFr = 1.1 -->
<!-- adjustBa = 0.9 -->
<!-- scArcfr = 1.25 -->
<!-- scArcBa = 0.25 -->
<!-- ang = 90 -->
</svg>
