<svg width="4960" height="8769" xmlns="http://www.w3.org/2000/svg">

<path d="M 1083.3912 1302.9867 A 1240.1574803149606 1240.1574803149606 0 0 0 2837.2388 1302.9867 " stroke="blue" fill="none" />
<path d="M 2122.7612 1302.9867 A 1240.1574803149606 1240.1574803149606 0 0 0 3876.609 1302.9867 " stroke="blue" fill="none" />
<path d="M 1603.0763 2342.357 A 1240.1574803149606 1240.1574803149606 0 0 0 3356.9238 2342.357 " stroke="blue" fill="none" />
<path d="M 1343.2338 1822.6718 A 1240.1574803149606 1240.1574803149606 0 0 0 3097.0813 1822.6718 " stroke="blue" fill="none" />
<path d="M 1603.0763 1302.9867 A 1240.1574803149606 1240.1574803149606 0 0 0 3356.9238 1302.9867 " stroke="blue" fill="none" />
<path d="M 1862.9187 1822.6718 A 1240.1574803149606 1240.1574803149606 0 0 0 3616.7664 1822.6718 " stroke="blue" fill="none" />
<path d="M 1213.3125 1562.8292 A 1240.1574803149606 1240.1574803149606 0 0 0 2967.16 1562.8292 " stroke="blue" fill="none" />
<path d="M 1862.9187 1302.9867 A 1240.1574803149606 1240.1574803149606 0 0 0 3616.7664 1302.9867 " stroke="blue" fill="none" />
<path d="M 1992.84 1562.8292 A 1240.1574803149606 1240.1574803149606 0 0 0 3746.6875 1562.8292 " stroke="blue" fill="none" />
<path d="M 1473.155 2082.5144 A 1240.1574803149606 1240.1574803149606 0 0 0 3227.0024 2082.5144 " stroke="blue" fill="none" />
<path d="M 1343.2338 1302.9867 A 1240.1574803149606 1240.1574803149606 0 0 0 3097.0813 1302.9867 " stroke="blue" fill="none" />
<path d="M 1732.9976 2082.5144 A 1240.1574803149606 1240.1574803149606 0 0 0 3486.845 2082.5144 " stroke="blue" fill="none" />
<path d="M 1644.8345 1780.9136 A 1181.1023622047244 1181.1023622047244 0 0 0 3315.1655 1780.9136 " stroke="blue" fill="none" />
<path d="M 1692.0786 1780.9136 A 1181.1023622047244 1181.1023622047244 0 0 0 3362.4097 1780.9136 " stroke="blue" fill="none" />
<path d="M 1597.5905 1780.9136 A 1181.1023622047244 1181.1023622047244 0 0 0 3267.9214 1780.9136 " stroke="blue" fill="none" />
<path d="M 1644.8345 1733.6694 A 1181.1023622047244 1181.1023622047244 0 0 0 3315.1655 1733.6694 " stroke="blue" fill="none" />
<path d="M 1644.8345 1828.1576 A 1181.1023622047244 1181.1023622047244 0 0 0 3315.1655 1828.1576 " stroke="blue" fill="none" />
<path d="M 2024.8348 1400.9132 A 643.7007881935656 643.7007881935656 0 0 0 2935.1653 1400.9132 " stroke="blue" fill="none" />
<path d="M 2016.4832 1409.2649 A 655.5118119916109 655.5118119916109 0 0 0 2943.5168 1409.2649 " stroke="blue" fill="none" />
<path d="M 1686.5928 2164.352 A 1122.0472440944882 1122.0472440944882 0 0 0 3273.4072 2164.352 " stroke="blue" fill="none" />
<path d="M 1385.9331 2039.815 A 1122.0472440944882 1122.0472440944882 0 0 0 2972.7476 2039.815 " stroke="blue" fill="none" />
<path d="M 1261.396 1739.1553 A 1122.0472440944882 1122.0472440944882 0 0 0 2848.2104 1739.1553 " stroke="blue" fill="none" />
<path d="M 1385.9331 1438.4956 A 1122.0472440944882 1122.0472440944882 0 0 0 2972.7476 1438.4956 " stroke="blue" fill="none" />
<path d="M 1686.5928 1313.9584 A 1122.0472440944882 1122.0472440944882 0 0 0 3273.4072 1313.9584 " stroke="blue" fill="none" />
<path d="M 1987.2524 1438.4956 A 1122.0472440944882 1122.0472440944882 0 0 0 3574.067 1438.4956 " stroke="blue" fill="none" />
<path d="M 2111.7896 1739.1553 A 1122.0472440944882 1122.0472440944882 0 0 0 3698.604 1739.1553 " stroke="blue" fill="none" />
<path d="M 1987.2524 2039.815 A 1122.0472440944882 1122.0472440944882 0 0 0 3574.067 2039.815 " stroke="blue" fill="none" />
<path d="M 1536.2632 2102.0833 A 1122.0472440944882 1122.0472440944882 0 0 0 3123.0776 2102.0833 " stroke="blue" fill="none" />
<path d="M 1323.6647 1889.4849 A 1122.0472440944882 1122.0472440944882 0 0 0 2910.4792 1889.4849 " stroke="blue" fill="none" />
<path d="M 1323.6647 1588.8257 A 1122.0472440944882 1122.0472440944882 0 0 0 2910.4792 1588.8257 " stroke="blue" fill="none" />
<path d="M 1536.2632 1376.2272 A 1122.0472440944882 1122.0472440944882 0 0 0 3123.0776 1376.2272 " stroke="blue" fill="none" />
<path d="M 1836.9224 1376.2272 A 1122.0472440944882 1122.0472440944882 0 0 0 3423.7368 1376.2272 " stroke="blue" fill="none" />
<path d="M 2049.5208 1588.8257 A 1122.0472440944882 1122.0472440944882 0 0 0 3636.3352 1588.8257 " stroke="blue" fill="none" />
<path d="M 2049.5208 1889.4849 A 1122.0472440944882 1122.0472440944882 0 0 0 3636.3352 1889.4849 " stroke="blue" fill="none" />
<path d="M 1836.9224 2102.0833 A 1122.0472440944882 1122.0472440944882 0 0 0 3423.7368 2102.0833 " stroke="blue" fill="none" />
<path d="M 1172.3936 1308.4725 A 1181.1023622047244 1181.1023622047244 0 0 0 2842.7246 1308.4725 " stroke="blue" fill="none" />
<path d="M 2117.2754 1308.4725 A 1181.1023622047244 1181.1023622047244 0 0 0 3787.6064 1308.4725 " stroke="blue" fill="none" />
<path d="M 1172.3936 2253.3545 A 1181.1023622047244 1181.1023622047244 0 0 0 2842.7246 2253.3545 " stroke="blue" fill="none" />
<path d="M 2117.2754 2253.3545 A 1181.1023622047244 1181.1023622047244 0 0 0 3787.6064 2253.3545 " stroke="blue" fill="none" />
<path d="M 1172.3936 1780.9136 A 1181.1023622047244 1181.1023622047244 0 0 0 2842.7246 1780.9136 " stroke="blue" fill="none" />
<path d="M 1172.3936 1544.693 A 1181.1023622047244 1181.1023622047244 0 0 0 2842.7246 1544.693 " stroke="blue" fill="none" />
<path d="M 1172.3936 2017.134 A 1181.1023622047244 1181.1023622047244 0 0 0 2842.7246 2017.134 " stroke="blue" fill="none" />
<path d="M 1644.8345 2253.3545 A 1181.1023622047244 1181.1023622047244 0 0 0 3315.1655 2253.3545 " stroke="blue" fill="none" />
<path d="M 1408.614 2253.3545 A 1181.1023622047244 1181.1023622047244 0 0 0 3078.945 2253.3545 " stroke="blue" fill="none" />
<path d="M 1881.0549 2253.3545 A 1181.1023622047244 1181.1023622047244 0 0 0 3551.386 2253.3545 " stroke="blue" fill="none" />
<path d="M 2117.2754 1780.9136 A 1181.1023622047244 1181.1023622047244 0 0 0 3787.6064 1780.9136 " stroke="blue" fill="none" />
<path d="M 2117.2754 2017.134 A 1181.1023622047244 1181.1023622047244 0 0 0 3787.6064 2017.134 " stroke="blue" fill="none" />
<path d="M 2117.2754 1544.693 A 1181.1023622047244 1181.1023622047244 0 0 0 3787.6064 1544.693 " stroke="blue" fill="none" />
<path d="M 1644.8345 1308.4725 A 1181.1023622047244 1181.1023622047244 0 0 0 3315.1655 1308.4725 " stroke="blue" fill="none" />
<path d="M 1881.0549 1308.4725 A 1181.1023622047244 1181.1023622047244 0 0 0 3551.386 1308.4725 " stroke="blue" fill="none" />
<path d="M 1408.614 1308.4725 A 1181.1023622047244 1181.1023622047244 0 0 0 3078.945 1308.4725 " stroke="blue" fill="none" />
<path d="M 1172.3936 1426.5828 A 1181.1023622047244 1181.1023622047244 0 0 0 2842.7246 1426.5828 " stroke="blue" fill="none" />
<path d="M 1999.1652 1308.4725 A 1181.1023622047244 1181.1023622047244 0 0 0 3669.496 1308.4725 " stroke="blue" fill="none" />
<path d="M 2117.2754 2135.2441 A 1181.1023622047244 1181.1023622047244 0 0 0 3787.6064 2135.2441 " stroke="blue" fill="none" />
<path d="M 1290.5038 2253.3545 A 1181.1023622047244 1181.1023622047244 0 0 0 2960.8347 2253.3545 " stroke="blue" fill="none" />
<path d="M 1172.3936 1899.0238 A 1181.1023622047244 1181.1023622047244 0 0 0 2842.7246 1899.0238 " stroke="blue" fill="none" />
<path d="M 1172.3936 1662.8033 A 1181.1023622047244 1181.1023622047244 0 0 0 2842.7246 1662.8033 " stroke="blue" fill="none" />
<path d="M 1172.3936 2135.2441 A 1181.1023622047244 1181.1023622047244 0 0 0 2842.7246 2135.2441 " stroke="blue" fill="none" />
<path d="M 1762.9447 2253.3545 A 1181.1023622047244 1181.1023622047244 0 0 0 3433.2756 2253.3545 " stroke="blue" fill="none" />
<path d="M 1526.7242 2253.3545 A 1181.1023622047244 1181.1023622047244 0 0 0 3197.0552 2253.3545 " stroke="blue" fill="none" />
<path d="M 1999.1652 2253.3545 A 1181.1023622047244 1181.1023622047244 0 0 0 3669.496 2253.3545 " stroke="blue" fill="none" />
<path d="M 2117.2754 1662.8033 A 1181.1023622047244 1181.1023622047244 0 0 0 3787.6064 1662.8033 " stroke="blue" fill="none" />
<path d="M 2117.2754 1899.0238 A 1181.1023622047244 1181.1023622047244 0 0 0 3787.6064 1899.0238 " stroke="blue" fill="none" />
<path d="M 2117.2754 1426.5828 A 1181.1023622047244 1181.1023622047244 0 0 0 3787.6064 1426.5828 " stroke="blue" fill="none" />
<path d="M 1526.7242 1308.4725 A 1181.1023622047244 1181.1023622047244 0 0 0 3197.0552 1308.4725 " stroke="blue" fill="none" />
<path d="M 1762.9447 1308.4725 A 1181.1023622047244 1181.1023622047244 0 0 0 3433.2756 1308.4725 " stroke="blue" fill="none" />
<path d="M 1290.5038 1308.4725 A 1181.1023622047244 1181.1023622047244 0 0 0 2960.8347 1308.4725 " stroke="blue" fill="none" />
<!-- radmm = 25 -->
<!-- dimensionCubemm = 40.0 -->
<!-- adjustFr = 1.1 -->
<!-- adjustBa = 0.9 -->
<!-- scArcfr = 1.25 -->
<!-- scArcBa = 0.25 -->
<!-- ang = 90 -->
</svg>
