<svg width="4960" height="8769" xmlns="http://www.w3.org/2000/svg">

<path d="M 1966.7761 1420.9663 A 672.0538870761479 672.0538870761479 0 0 0 2917.2039 1420.9663 " stroke="blue" fill="none" />
<path d="M 2042.7964 1420.9658 A 672.0531500846616 672.0531500846616 0 0 0 2993.2231 1420.9658 " stroke="blue" fill="none" />
<path d="M 2014.5972 1394.8914 A 631.302165593512 631.302165593512 0 0 0 2907.3933 1394.8914 " stroke="blue" fill="none" />
<path d="M 2052.6067 1394.8914 A 631.302165593512 631.302165593512 0 0 0 2945.4028 1394.8914 " stroke="blue" fill="none" />
<path d="M 2041.1047 1371.34 A 598.7013780005922 598.7013780005922 0 0 0 2887.7964 1371.34 " stroke="blue" fill="none" />
<path d="M 2072.2036 1371.34 A 598.7013780005922 598.7013780005922 0 0 0 2918.8953 1371.34 " stroke="blue" fill="none" />
<path d="M 2019.7924 1374.8605 A 606.851574898822 606.851574898822 0 0 0 2878.01 1374.8605 " stroke="blue" fill="none" />
<path d="M 2081.99 1374.8605 A 606.851574898822 606.851574898822 0 0 0 2940.2078 1374.8605 " stroke="blue" fill="none" />
<path d="M 2041.1047 1366.8513 A 598.7013780005922 598.7013780005922 0 0 0 2887.7964 1366.8513 " stroke="blue" fill="none" />
<path d="M 2072.2036 1366.8513 A 598.7013780005922 598.7013780005922 0 0 0 2918.8953 1366.8513 " stroke="blue" fill="none" />
<path d="M 2014.5972 1389.4052 A 631.302165593512 631.302165593512 0 0 0 2907.3933 1389.4052 " stroke="blue" fill="none" />
<path d="M 2052.6067 1389.4052 A 631.302165593512 631.302165593512 0 0 0 2945.4028 1389.4052 " stroke="blue" fill="none" />
<path d="M 1911.0436 1485.9872 A 764.0344450088936 764.0344450088936 0 0 0 2991.5515 1485.9872 " stroke="blue" fill="none" />
<path d="M 1487.8154 1780.8563 A 1181.1023622047244 1181.1023622047244 0 0 0 3158.1465 1780.8563 " stroke="blue" fill="none" />
<path d="M 2014.3992 1387.8529 A 625.2478338836685 625.2478338836685 0 0 0 2898.633 1387.8529 " stroke="blue" fill="none" />
<path d="M 2027.7206 1398.0103 A 639.6196342594042 639.6196342594042 0 0 0 2932.2793 1398.0103 " stroke="blue" fill="none" />
<path d="M 1919.4503 1506.283 A 764.0344450088936 764.0344450088936 0 0 0 2999.9583 1506.283 " stroke="blue" fill="none" />
<path d="M 1533.8052 1891.8856 A 1181.1023622047244 1181.1023622047244 0 0 0 3204.1362 1891.8856 " stroke="blue" fill="none" />
<path d="M 2021.2775 1404.4586 A 625.2478338836685 625.2478338836685 0 0 0 2905.5115 1404.4586 " stroke="blue" fill="none" />
<path d="M 1939.7461 1514.6897 A 764.0344450088936 764.0344450088936 0 0 0 3020.254 1514.6897 " stroke="blue" fill="none" />
<path d="M 1644.8345 1937.8754 A 1181.1023622047244 1181.1023622047244 0 0 0 3315.1655 1937.8754 " stroke="blue" fill="none" />
<path d="M 2037.883 1411.3368 A 625.2478338836685 625.2478338836685 0 0 0 2922.117 1411.3368 " stroke="blue" fill="none" />
<path d="M 1960.0419 1506.2828 A 764.0344450088936 764.0344450088936 0 0 0 3040.5498 1506.2828 " stroke="blue" fill="none" />
<path d="M 1755.8638 1891.8856 A 1181.1023622047244 1181.1023622047244 0 0 0 3426.1948 1891.8856 " stroke="blue" fill="none" />
<path d="M 2054.4888 1404.4585 A 625.2478338836685 625.2478338836685 0 0 0 2938.7227 1404.4585 " stroke="blue" fill="none" />
<path d="M 1968.4486 1485.9872 A 764.0344450088936 764.0344450088936 0 0 0 3048.9565 1485.9872 " stroke="blue" fill="none" />
<path d="M 1801.8535 1780.8563 A 1181.1023622047244 1181.1023622047244 0 0 0 3472.1846 1780.8563 " stroke="blue" fill="none" />
<path d="M 2061.367 1387.8529 A 625.2478338836685 625.2478338836685 0 0 0 2945.6008 1387.8529 " stroke="blue" fill="none" />
<path d="M 1960.0419 1465.6914 A 764.0344450088936 764.0344450088936 0 0 0 3040.5498 1465.6914 " stroke="blue" fill="none" />
<path d="M 1755.8638 1669.827 A 1181.1023622047244 1181.1023622047244 0 0 0 3426.1948 1669.827 " stroke="blue" fill="none" />
<path d="M 2054.4888 1371.2473 A 625.2478338836685 625.2478338836685 0 0 0 2938.7227 1371.2473 " stroke="blue" fill="none" />
<path d="M 1939.7461 1457.2847 A 764.0344450088936 764.0344450088936 0 0 0 3020.254 1457.2847 " stroke="blue" fill="none" />
<path d="M 1644.8345 1623.8373 A 1181.1023622047244 1181.1023622047244 0 0 0 3315.1655 1623.8373 " stroke="blue" fill="none" />
<path d="M 2037.883 1364.369 A 625.2478338836685 625.2478338836685 0 0 0 2922.117 1364.369 " stroke="blue" fill="none" />
<path d="M 1888.9341 1536.7931 A 835.8934468875719 835.8934468875719 0 0 0 3071.066 1536.7931 " stroke="blue" fill="none" />
<path d="M 1919.4503 1465.6914 A 764.0344450088936 764.0344450088936 0 0 0 2999.9583 1465.6914 " stroke="blue" fill="none" />
<path d="M 1533.8052 1669.827 A 1181.1023622047244 1181.1023622047244 0 0 0 3204.1362 1669.827 " stroke="blue" fill="none" />
<path d="M 2021.2775 1371.2473 A 625.2478338836685 625.2478338836685 0 0 0 2905.5115 1371.2473 " stroke="blue" fill="none" />
<path d="M 1884.7113 2188.9036 A 1328.7128337959605 1328.7128337959605 0 0 0 3763.795 2188.9036 " stroke="blue" fill="none" />
<path d="M 1884.7113 1578.7198 A 1328.7128337959605 1328.7128337959605 0 0 0 3763.795 1578.7198 " stroke="blue" fill="none" />
<path d="M 1957.8035 1367.7662 A 1181.1023622047244 1181.1023622047244 0 0 0 3628.1345 1367.7662 " stroke="blue" fill="none" />
<path d="M 2239.6868 1216.8926 A 738.1835116410819 738.1835116410819 0 0 0 3283.6357 1216.8926 " stroke="blue" fill="none" />
<path d="M 2239.6868 1716.1338 A 738.1835116410819 738.1835116410819 0 0 0 3283.6357 1716.1338 " stroke="blue" fill="none" />
<path d="M 1957.803 2193.9465 A 1181.1023622047244 1181.1023622047244 0 0 0 3628.134 2193.9465 " stroke="blue" fill="none" />
<path d="M 1957.8035 1778.283 A 1181.1023622047244 1181.1023622047244 0 0 0 3628.1345 1778.283 " stroke="blue" fill="none" />
<path d="M 1196.2056 2188.9036 A 1328.7128337959605 1328.7128337959605 0 0 0 3075.2893 2188.9036 " stroke="blue" fill="none" />
<path d="M 1196.2056 1581.5504 A 1328.7128337959605 1328.7128337959605 0 0 0 3075.2893 1581.5504 " stroke="blue" fill="none" />
<path d="M 1331.866 1367.7662 A 1181.1023622047244 1181.1023622047244 0 0 0 3002.197 1367.7662 " stroke="blue" fill="none" />
<path d="M 1676.3638 1219.2085 A 738.1835116410819 738.1835116410819 0 0 0 2720.313 1219.2085 " stroke="blue" fill="none" />
<path d="M 1676.3638 1716.1338 A 738.1835116410819 738.1835116410819 0 0 0 2720.313 1716.1338 " stroke="blue" fill="none" />
<path d="M 1331.8655 2193.9465 A 1181.1023622047244 1181.1023622047244 0 0 0 3002.1965 2193.9465 " stroke="blue" fill="none" />
<path d="M 1331.866 1780.8563 A 1181.1023622047244 1181.1023622047244 0 0 0 3002.197 1780.8563 " stroke="blue" fill="none" />
<path d="M 1196.2056 1885.227 A 1328.7128337959605 1328.7128337959605 0 0 0 3075.2893 1885.227 " stroke="blue" fill="none" />
<path d="M 1629.3109 1434.7642 A 959.6323814448409 959.6323814448409 0 0 0 2986.436 1434.7642 " stroke="blue" fill="none" />
<path d="M 1869.3904 1260.4435 A 664.3674211708579 664.3674211708579 0 0 0 2808.9478 1260.4435 " stroke="blue" fill="none" />
<path d="M 1676.3638 1467.6711 A 738.1835116410819 738.1835116410819 0 0 0 2720.313 1467.6711 " stroke="blue" fill="none" />
<path d="M 1869.3904 1570.5586 A 664.3674211708579 664.3674211708579 0 0 0 2808.9478 1570.5586 " stroke="blue" fill="none" />
<path d="M 1629.3109 1813.794 A 959.6323814448409 959.6323814448409 0 0 0 2986.436 1813.794 " stroke="blue" fill="none" />
<path d="M 1869.3904 1477.6167 A 664.3674211708579 664.3674211708579 0 0 0 2808.9478 1477.6167 " stroke="blue" fill="none" />
<path d="M 1629.3109 1548.3601 A 959.6323814448409 959.6323814448409 0 0 0 2986.436 1548.3601 " stroke="blue" fill="none" />
<path d="M 1869.3904 1353.3854 A 664.3674211708579 664.3674211708579 0 0 0 2808.9478 1353.3854 " stroke="blue" fill="none" />
<path d="M 1629.3109 1700.1982 A 959.6323814448409 959.6323814448409 0 0 0 2986.436 1700.1982 " stroke="blue" fill="none" />
<path d="M 1331.8655 1987.4014 A 1181.1023622047244 1181.1023622047244 0 0 0 3002.1965 1987.4014 " stroke="blue" fill="none" />
<path d="M 1331.866 1574.3113 A 1181.1023622047244 1181.1023622047244 0 0 0 3002.197 1574.3113 " stroke="blue" fill="none" />
<path d="M 1331.8655 1780.8563 A 1181.1023622047244 1181.1023622047244 0 0 0 3002.1965 1780.8563 " stroke="blue" fill="none" />
<path d="M 1331.8655 1780.8563 A 1181.1023622047244 1181.1023622047244 0 0 0 3002.1965 1780.8563 " stroke="blue" fill="none" />
<path d="M 1331.8655 1780.8563 A 1181.1023622047244 1181.1023622047244 0 0 0 3002.1965 1780.8563 " stroke="blue" fill="none" />
<path d="M 1196.2056 2037.0651 A 1328.7128337959605 1328.7128337959605 0 0 0 3075.2893 2037.0651 " stroke="blue" fill="none" />
<path d="M 1412.7578 1498.7384 A 1144.1729816160803 1144.1729816160803 0 0 0 3030.8628 1498.7384 " stroke="blue" fill="none" />
<path d="M 1965.9039 1304.1805 A 627.4593011366101 627.4593011366101 0 0 0 2853.2654 1304.1805 " stroke="blue" fill="none" />
<path d="M 1676.3638 1343.4401 A 738.1835116410819 738.1835116410819 0 0 0 2720.313 1343.4401 " stroke="blue" fill="none" />
<path d="M 1772.8768 1651.0529 A 701.2755412051058 701.2755412051058 0 0 0 2764.6301 1651.0529 " stroke="blue" fill="none" />
<path d="M 1845.864 1597.9814 A 775.0917812736016 775.0917812736016 0 0 0 2942.0093 1597.9814 " stroke="blue" fill="none" />
<path d="M 1772.8768 1581.3463 A 701.2755412051058 701.2755412051058 0 0 0 2764.6301 1581.3463 " stroke="blue" fill="none" />
<path d="M 1845.8641 1474.8252 A 775.0917812736016 775.0917812736016 0 0 0 2942.0095 1474.8252 " stroke="blue" fill="none" />
<path d="M 1772.8768 1301.826 A 701.2755412051058 701.2755412051058 0 0 0 2764.6301 1301.826 " stroke="blue" fill="none" />
<path d="M 1845.8641 1512.7848 A 775.0917812736016 775.0917812736016 0 0 0 2942.0095 1512.7848 " stroke="blue" fill="none" />
<path d="M 1331.8655 1884.1287 A 1181.1023622047244 1181.1023622047244 0 0 0 3002.1965 1884.1287 " stroke="blue" fill="none" />
<path d="M 1331.866 1677.5836 A 1181.1023622047244 1181.1023622047244 0 0 0 3002.197 1677.5836 " stroke="blue" fill="none" />
<path d="M 1869.3904 1353.3854 A 664.3674211708579 664.3674211708579 0 0 0 2808.9478 1353.3854 " stroke="blue" fill="none" />
<path d="M 1331.8655 1987.4014 A 1181.1023622047244 1181.1023622047244 0 0 0 3002.1965 1987.4014 " stroke="blue" fill="none" />
<path d="M 1869.3904 1477.6167 A 664.3674211708579 664.3674211708579 0 0 0 2808.9478 1477.6167 " stroke="blue" fill="none" />
<path d="M 1196.2056 1733.389 A 1328.7128337959605 1328.7128337959605 0 0 0 3075.2893 1733.389 " stroke="blue" fill="none" />
<path d="M 1845.8641 1389.6284 A 775.0917812736016 775.0917812736016 0 0 0 2942.0095 1389.6284 " stroke="blue" fill="none" />
<path d="M 1772.8768 1232.1194 A 701.2755412051058 701.2755412051058 0 0 0 2764.6301 1232.1194 " stroke="blue" fill="none" />
<path d="M 1676.3638 1591.9022 A 738.1835116410819 738.1835116410819 0 0 0 2720.313 1591.9022 " stroke="blue" fill="none" />
<path d="M 1965.9038 1474.6512 A 627.4593011366101 627.4593011366101 0 0 0 2853.2651 1474.6512 " stroke="blue" fill="none" />
<path d="M 1412.7578 2010.7683 A 1144.1729816160803 1144.1729816160803 0 0 0 3030.8628 2010.7683 " stroke="blue" fill="none" />
<path d="M 1965.9038 1404.9448 A 627.4593011366101 627.4593011366101 0 0 0 2853.2651 1404.9448 " stroke="blue" fill="none" />
<path d="M 1412.7578 1583.9349 A 1144.1729816160803 1144.1729816160803 0 0 0 3030.8628 1583.9349 " stroke="blue" fill="none" />
<path d="M 1965.9038 1373.887 A 627.4593011366101 627.4593011366101 0 0 0 2853.2651 1373.887 " stroke="blue" fill="none" />
<path d="M 1412.7578 1925.5713 A 1144.1729816160803 1144.1729816160803 0 0 0 3030.8628 1925.5713 " stroke="blue" fill="none" />
<path d="M 1331.8655 2090.6736 A 1181.1023622047244 1181.1023622047244 0 0 0 3002.1965 2090.6736 " stroke="blue" fill="none" />
<path d="M 1331.866 1471.0386 A 1181.1023622047244 1181.1023622047244 0 0 0 3002.197 1471.0386 " stroke="blue" fill="none" />
<path d="M 1629.3109 1700.1982 A 959.6323814448409 959.6323814448409 0 0 0 2986.436 1700.1982 " stroke="blue" fill="none" />
<path d="M 1331.866 1574.3113 A 1181.1023622047244 1181.1023622047244 0 0 0 3002.197 1574.3113 " stroke="blue" fill="none" />
<path d="M 1629.3109 1548.3601 A 959.6323814448409 959.6323814448409 0 0 0 2986.436 1548.3601 " stroke="blue" fill="none" />
<path d="M 1965.9038 1350.6515 A 627.4593011366101 627.4593011366101 0 0 0 2853.2651 1350.6515 " stroke="blue" fill="none" />
<path d="M 1869.3904 1306.9143 A 664.3674211708579 664.3674211708579 0 0 0 2808.9478 1306.9143 " stroke="blue" fill="none" />
<path d="M 1965.9039 1327.416 A 627.4593011366101 627.4593011366101 0 0 0 2853.2654 1327.416 " stroke="blue" fill="none" />
<path d="M 1845.8641 1541.1837 A 775.0917812736016 775.0917812736016 0 0 0 2942.0095 1541.1837 " stroke="blue" fill="none" />
<path d="M 1629.3109 1756.9962 A 959.6323814448409 959.6323814448409 0 0 0 2986.436 1756.9962 " stroke="blue" fill="none" />
<path d="M 1845.864 1569.5825 A 775.0917812736016 775.0917812736016 0 0 0 2942.0093 1569.5825 " stroke="blue" fill="none" />
<path d="M 1629.3109 1624.2792 A 959.6323814448409 959.6323814448409 0 0 0 2986.436 1624.2792 " stroke="blue" fill="none" />
<path d="M 1412.7578 1697.8141 A 1144.1729816160803 1144.1729816160803 0 0 0 3030.8628 1697.8141 " stroke="blue" fill="none" />
<path d="M 1412.7578 1811.6926 A 1144.1729816160803 1144.1729816160803 0 0 0 3030.8628 1811.6926 " stroke="blue" fill="none" />
<path d="M 1845.8641 1446.4261 A 775.0917812736016 775.0917812736016 0 0 0 2942.0095 1446.4261 " stroke="blue" fill="none" />
<path d="M 1845.8641 1418.0273 A 775.0917812736016 775.0917812736016 0 0 0 2942.0095 1418.0273 " stroke="blue" fill="none" />
<path d="M 1629.3109 1491.5621 A 959.6323814448409 959.6323814448409 0 0 0 2986.436 1491.5621 " stroke="blue" fill="none" />
<path d="M 1772.8768 1488.1729 A 701.2755412051058 701.2755412051058 0 0 0 2764.6301 1488.1729 " stroke="blue" fill="none" />
<path d="M 1772.8768 1394.9994 A 701.2755412051058 701.2755412051058 0 0 0 2764.6301 1394.9994 " stroke="blue" fill="none" />
<path d="M 1869.3904 1415.501 A 664.3674211708579 664.3674211708579 0 0 0 2808.9478 1415.501 " stroke="blue" fill="none" />
<path d="M 1965.9038 1428.1803 A 627.4593011366101 627.4593011366101 0 0 0 2853.2651 1428.1803 " stroke="blue" fill="none" />
<path d="M 1965.9038 1451.4158 A 627.4593011366101 627.4593011366101 0 0 0 2853.2651 1451.4158 " stroke="blue" fill="none" />
<path d="M 1869.3904 1524.0876 A 664.3674211708579 664.3674211708579 0 0 0 2808.9478 1524.0876 " stroke="blue" fill="none" />
<path d="M 1884.7113 1883.8114 A 1328.7128337959605 1328.7128337959605 0 0 0 3763.795 1883.8114 " stroke="blue" fill="none" />
<path d="M 1973.5642 1434.0566 A 959.6323814448409 959.6323814448409 0 0 0 3330.6892 1434.0566 " stroke="blue" fill="none" />
<path d="M 2151.0522 1259.8644 A 664.3674211708579 664.3674211708579 0 0 0 3090.6096 1259.8644 " stroke="blue" fill="none" />
<path d="M 2239.6868 1466.513 A 738.1835116410819 738.1835116410819 0 0 0 3283.6357 1466.513 " stroke="blue" fill="none" />
<path d="M 2151.052 1570.5586 A 664.3674211708579 664.3674211708579 0 0 0 3090.6094 1570.5586 " stroke="blue" fill="none" />
<path d="M 1973.5642 1813.794 A 959.6323814448409 959.6323814448409 0 0 0 3330.6892 1813.794 " stroke="blue" fill="none" />
<path d="M 2151.052 1352.2272 A 664.3674211708579 664.3674211708579 0 0 0 3090.6094 1352.2272 " stroke="blue" fill="none" />
<path d="M 1973.5642 1699.4907 A 959.6323814448409 959.6323814448409 0 0 0 3330.6892 1699.4907 " stroke="blue" fill="none" />
<path d="M 1957.8035 1986.1145 A 1181.1023622047244 1181.1023622047244 0 0 0 3628.1345 1986.1145 " stroke="blue" fill="none" />
<path d="M 1957.8035 1573.0244 A 1181.1023622047244 1181.1023622047244 0 0 0 3628.1345 1573.0244 " stroke="blue" fill="none" />
<path d="M 2151.052 1477.0377 A 664.3674211708579 664.3674211708579 0 0 0 3090.6094 1477.0377 " stroke="blue" fill="none" />
<path d="M 1973.5642 1546.9445 A 959.6323814448409 959.6323814448409 0 0 0 3330.6892 1546.9445 " stroke="blue" fill="none" />
<path d="M 1957.8035 1779.5695 A 1181.1023622047244 1181.1023622047244 0 0 0 3628.1345 1779.5695 " stroke="blue" fill="none" />
<path d="M 1957.8035 1779.5695 A 1181.1023622047244 1181.1023622047244 0 0 0 3628.1345 1779.5695 " stroke="blue" fill="none" />
<path d="M 1957.8035 1780.8563 A 1181.1023622047244 1181.1023622047244 0 0 0 3628.1345 1780.8563 " stroke="blue" fill="none" />
<path d="M 1884.7113 2036.3573 A 1328.7128337959605 1328.7128337959605 0 0 0 3763.795 2036.3573 " stroke="blue" fill="none" />
<path d="M 1929.1377 1497.1459 A 1144.1729816160803 1144.1729816160803 0 0 0 3547.2427 1497.1459 " stroke="blue" fill="none" />
<path d="M 2106.7349 1304.0358 A 627.4593011366101 627.4593011366101 0 0 0 2994.0962 1304.0358 " stroke="blue" fill="none" />
<path d="M 2239.6868 1341.7028 A 738.1835116410819 738.1835116410819 0 0 0 3283.6357 1341.7028 " stroke="blue" fill="none" />
<path d="M 2195.3694 1651.0529 A 701.2755412051058 701.2755412051058 0 0 0 3187.1228 1651.0529 " stroke="blue" fill="none" />
<path d="M 2017.9907 1597.9814 A 775.0917812736016 775.0917812736016 0 0 0 3114.136 1597.9814 " stroke="blue" fill="none" />
<path d="M 2195.3694 1300.0887 A 701.2755412051058 701.2755412051058 0 0 0 3187.1228 1300.0887 " stroke="blue" fill="none" />
<path d="M 2017.9907 1512.254 A 775.0917812736016 775.0917812736016 0 0 0 3114.136 1512.254 " stroke="blue" fill="none" />
<path d="M 1957.8035 1882.1987 A 1181.1023622047244 1181.1023622047244 0 0 0 3628.1345 1882.1987 " stroke="blue" fill="none" />
<path d="M 1957.8035 1470.3951 A 1181.1023622047244 1181.1023622047244 0 0 0 3628.1345 1470.3951 " stroke="blue" fill="none" />
<path d="M 2106.7346 1404.5106 A 627.4593011366101 627.4593011366101 0 0 0 2994.0962 1404.5106 " stroke="blue" fill="none" />
<path d="M 2017.9907 1474.1174 A 775.0917812736016 775.0917812736016 0 0 0 3114.136 1474.1174 " stroke="blue" fill="none" />
<path d="M 1973.5642 1547.2983 A 959.6323814448409 959.6323814448409 0 0 0 3330.6892 1547.2983 " stroke="blue" fill="none" />
<path d="M 2151.052 1352.5167 A 664.3674211708579 664.3674211708579 0 0 0 3090.6094 1352.5167 " stroke="blue" fill="none" />
<path d="M 1957.8035 1987.4014 A 1181.1023622047244 1181.1023622047244 0 0 0 3628.1345 1987.4014 " stroke="blue" fill="none" />
<path d="M 1884.7113 1731.2656 A 1328.7128337959605 1328.7128337959605 0 0 0 3763.795 1731.2656 " stroke="blue" fill="none" />
<path d="M 2017.9907 1389.4514 A 775.0917812736016 775.0917812736016 0 0 0 3114.136 1389.4514 " stroke="blue" fill="none" />
<path d="M 2195.3694 1230.8168 A 701.2755412051058 701.2755412051058 0 0 0 3187.1228 1230.8168 " stroke="blue" fill="none" />
<path d="M 2239.6868 1591.3236 A 738.1835116410819 738.1835116410819 0 0 0 3283.6357 1591.3236 " stroke="blue" fill="none" />
<path d="M 2106.7346 1474.6512 A 627.4593011366101 627.4593011366101 0 0 0 2994.0962 1474.6512 " stroke="blue" fill="none" />
<path d="M 1929.1377 2010.7683 A 1144.1729816160803 1144.1729816160803 0 0 0 3547.2427 2010.7683 " stroke="blue" fill="none" />
<path d="M 2106.7349 1373.308 A 627.4593011366101 627.4593011366101 0 0 0 2994.0962 1373.308 " stroke="blue" fill="none" />
<path d="M 1929.1377 1925.0409 A 1144.1729816160803 1144.1729816160803 0 0 0 3547.2427 1925.0409 " stroke="blue" fill="none" />
<path d="M 1957.803 2090.0308 A 1181.1023622047244 1181.1023622047244 0 0 0 3628.134 2090.0308 " stroke="blue" fill="none" />
<path d="M 1957.8035 1675.6537 A 1181.1023622047244 1181.1023622047244 0 0 0 3628.1345 1675.6537 " stroke="blue" fill="none" />
<path d="M 2195.3694 1580.9122 A 701.2755412051058 701.2755412051058 0 0 0 3187.1228 1580.9122 " stroke="blue" fill="none" />
<path d="M 1929.1377 1581.812 A 1144.1729816160803 1144.1729816160803 0 0 0 3547.2427 1581.812 " stroke="blue" fill="none" />
<path d="M 2151.052 1477.3271 A 664.3674211708579 664.3674211708579 0 0 0 3090.6094 1477.3271 " stroke="blue" fill="none" />
<path d="M 1973.5642 1699.8444 A 959.6323814448409 959.6323814448409 0 0 0 3330.6892 1699.8444 " stroke="blue" fill="none" />
<path d="M 1957.8035 1574.3113 A 1181.1023622047244 1181.1023622047244 0 0 0 3628.1345 1574.3113 " stroke="blue" fill="none" />
<path d="M 2017.9907 1474.2943 A 775.0917812736016 775.0917812736016 0 0 0 3114.136 1474.2943 " stroke="blue" fill="none" />
<path d="M 2106.7346 1404.6553 A 627.4593011366101 627.4593011366101 0 0 0 2994.0962 1404.6553 " stroke="blue" fill="none" />
<path d="M 1957.8035 1778.9259 A 1181.1023622047244 1181.1023622047244 0 0 0 3628.1345 1778.9259 " stroke="blue" fill="none" />
<path d="M 2017.9907 1445.8955 A 775.0917812736016 775.0917812736016 0 0 0 3114.136 1445.8955 " stroke="blue" fill="none" />
<path d="M 2017.9907 1417.6735 A 775.0917812736016 775.0917812736016 0 0 0 3114.136 1417.6735 " stroke="blue" fill="none" />
<path d="M 1973.5642 1490.5006 A 959.6323814448409 959.6323814448409 0 0 0 3330.6892 1490.5006 " stroke="blue" fill="none" />
<path d="M 2106.7346 1427.8907 A 627.4593011366101 627.4593011366101 0 0 0 2994.0962 1427.8907 " stroke="blue" fill="none" />
<path d="M 2106.7346 1451.271 A 627.4593011366101 627.4593011366101 0 0 0 2994.0962 1451.271 " stroke="blue" fill="none" />
<path d="M 2151.052 1523.7981 A 664.3674211708579 664.3674211708579 0 0 0 3090.6094 1523.7981 " stroke="blue" fill="none" />
<path d="M 1973.5642 1623.2175 A 959.6323814448409 959.6323814448409 0 0 0 3330.6892 1623.2175 " stroke="blue" fill="none" />
<path d="M 1929.1377 1696.2216 A 1144.1729816160803 1144.1729816160803 0 0 0 3547.2427 1696.2216 " stroke="blue" fill="none" />
<path d="M 1929.1377 1810.631 A 1144.1729816160803 1144.1729816160803 0 0 0 3547.2427 1810.631 " stroke="blue" fill="none" />
<path d="M 2017.9907 1540.8298 A 775.0917812736016 775.0917812736016 0 0 0 3114.136 1540.8298 " stroke="blue" fill="none" />
<path d="M 1973.5642 1756.6423 A 959.6323814448409 959.6323814448409 0 0 0 3330.6892 1756.6423 " stroke="blue" fill="none" />
<path d="M 2017.9907 1569.4056 A 775.0917812736016 775.0917812736016 0 0 0 3114.136 1569.4056 " stroke="blue" fill="none" />
<path d="M 2151.052 1306.0459 A 664.3674211708579 664.3674211708579 0 0 0 3090.6094 1306.0459 " stroke="blue" fill="none" />
<path d="M 2106.7349 1327.1265 A 627.4593011366101 627.4593011366101 0 0 0 2994.0962 1327.1265 " stroke="blue" fill="none" />
<path d="M 2106.7349 1350.2173 A 627.4593011366101 627.4593011366101 0 0 0 2994.0962 1350.2173 " stroke="blue" fill="none" />
<path d="M 2151.052 1414.6326 A 664.3674211708579 664.3674211708579 0 0 0 3090.6094 1414.6326 " stroke="blue" fill="none" />
<path d="M 2195.3694 1487.3046 A 701.2755412051058 701.2755412051058 0 0 0 3187.1228 1487.3046 " stroke="blue" fill="none" />
<path d="M 2195.3694 1393.6964 A 701.2755412051058 701.2755412051058 0 0 0 3187.1228 1393.6964 " stroke="blue" fill="none" />
<path d="M 2056.6543 1366.8513 A 598.7013780005922 598.7013780005922 0 0 0 2903.3457 1366.8513 " stroke="blue" fill="none" />
<path d="M 2048.8794 1366.8513 A 598.7013780005922 598.7013780005922 0 0 0 2895.571 1366.8513 " stroke="blue" fill="none" />
<path d="M 2064.429 1366.8513 A 598.7013780005922 598.7013780005922 0 0 0 2911.1206 1366.8513 " stroke="blue" fill="none" />
<path d="M 2004.7866 1420.9658 A 672.0531500846616 672.0531500846616 0 0 0 2955.2134 1420.9658 " stroke="blue" fill="none" />
<path d="M 2033.6019 1394.8914 A 631.302165593512 631.302165593512 0 0 0 2926.398 1394.8914 " stroke="blue" fill="none" />
<path d="M 2056.6543 1371.34 A 598.7013780005922 598.7013780005922 0 0 0 2903.3457 1371.34 " stroke="blue" fill="none" />
<path d="M 2050.891 1374.8605 A 606.851574898822 606.851574898822 0 0 0 2909.109 1374.8605 " stroke="blue" fill="none" />
<path d="M 2033.6019 1389.4052 A 631.302165593512 631.302165593512 0 0 0 2926.398 1389.4052 " stroke="blue" fill="none" />
<path d="M 1990.687 1408.6144 A 651.6776564641027 651.6776564641027 0 0 0 2912.2983 1408.6144 " stroke="blue" fill="none" />
<path d="M 2047.7015 1408.6144 A 651.6776564641027 651.6776564641027 0 0 0 2969.313 1408.6144 " stroke="blue" fill="none" />
<path d="M 2023.7915 1420.9658 A 672.0531500846616 672.0531500846616 0 0 0 2974.2183 1420.9658 " stroke="blue" fill="none" />
<path d="M 2024.0995 1394.8914 A 631.302165593512 631.302165593512 0 0 0 2916.8955 1394.8914 " stroke="blue" fill="none" />
<path d="M 1331.866 1826.1228 A 1181.1023622047244 1181.1023622047244 0 0 0 3002.197 1826.1228 " stroke="blue" fill="none" />
<path d="M 1957.8035 1826.1228 A 1181.1023622047244 1181.1023622047244 0 0 0 3628.1345 1826.1228 " stroke="blue" fill="none" />
<path d="M 2048.8794 1371.34 A 598.7013780005922 598.7013780005922 0 0 0 2895.571 1371.34 " stroke="blue" fill="none" />
<path d="M 2030.4486 1373.6614 A 602.7764761747103 602.7764761747103 0 0 0 2882.9033 1373.6614 " stroke="blue" fill="none" />
<path d="M 2077.097 1373.6614 A 602.7764761747103 602.7764761747103 0 0 0 2929.5515 1373.6614 " stroke="blue" fill="none" />
<path d="M 2035.3417 1374.8605 A 606.851574898822 606.851574898822 0 0 0 2893.5596 1374.8605 " stroke="blue" fill="none" />
<path d="M 2024.0995 1389.4052 A 631.302165593512 631.302165593512 0 0 0 2916.8955 1389.4052 " stroke="blue" fill="none" />
<path d="M 1990.687 1404.4998 A 651.6776564641027 651.6776564641027 0 0 0 2912.2983 1404.4998 " stroke="blue" fill="none" />
<path d="M 2047.7015 1404.4998 A 651.6776564641027 651.6776564641027 0 0 0 2969.313 1404.4998 " stroke="blue" fill="none" />
<path d="M 1985.7819 1420.9658 A 672.0531500846616 672.0531500846616 0 0 0 2936.2085 1420.9658 " stroke="blue" fill="none" />
<path d="M 2043.1044 1394.8914 A 631.302165593512 631.302165593512 0 0 0 2935.9004 1394.8914 " stroke="blue" fill="none" />
<path d="M 2064.429 1371.34 A 598.7013780005922 598.7013780005922 0 0 0 2911.1206 1371.34 " stroke="blue" fill="none" />
<path d="M 2066.4404 1374.8605 A 606.851574898822 606.851574898822 0 0 0 2924.6582 1374.8605 " stroke="blue" fill="none" />
<path d="M 2043.1044 1389.4052 A 631.302165593512 631.302165593512 0 0 0 2935.9004 1389.4052 " stroke="blue" fill="none" />
<path d="M 2019.1943 1404.4998 A 651.6776564641027 651.6776564641027 0 0 0 2940.8057 1404.4998 " stroke="blue" fill="none" />
<path d="M 2053.7727 1373.6614 A 602.7764761747103 602.7764761747103 0 0 0 2906.2273 1373.6614 " stroke="blue" fill="none" />
<path d="M 1644.8345 1826.1228 A 1181.1023622047244 1181.1023622047244 0 0 0 3315.1655 1826.1228 " stroke="blue" fill="none" />
<path d="M 2019.1943 1408.6144 A 651.6776564641027 651.6776564641027 0 0 0 2940.8057 1408.6144 " stroke="blue" fill="none" />
<path d="M 2004.9407 1408.6144 A 651.6776564641027 651.6776564641027 0 0 0 2926.552 1408.6144 " stroke="blue" fill="none" />
<path d="M 1488.3502 1826.1228 A 1181.1023622047244 1181.1023622047244 0 0 0 3158.6812 1826.1228 " stroke="blue" fill="none" />
<path d="M 2042.1106 1373.6614 A 602.7764761747103 602.7764761747103 0 0 0 2894.5652 1373.6614 " stroke="blue" fill="none" />
<path d="M 2004.9407 1404.4998 A 651.6776564641027 651.6776564641027 0 0 0 2926.552 1404.4998 " stroke="blue" fill="none" />
<path d="M 2033.4479 1404.4998 A 651.6776564641027 651.6776564641027 0 0 0 2955.0593 1404.4998 " stroke="blue" fill="none" />
<path d="M 2065.4348 1373.6614 A 602.7764761747103 602.7764761747103 0 0 0 2917.8894 1373.6614 " stroke="blue" fill="none" />
<path d="M 1801.3187 1826.1228 A 1181.1023622047244 1181.1023622047244 0 0 0 3471.6497 1826.1228 " stroke="blue" fill="none" />
<path d="M 2033.4479 1408.6144 A 651.6776564641027 651.6776564641027 0 0 0 2955.0593 1408.6144 " stroke="blue" fill="none" />
<path d="M 1700.3491 1646.8319 A 1181.1023622047244 1181.1023622047244 0 0 0 3370.6802 1646.8319 " stroke="blue" fill="none" />
<path d="M 1589.3198 1646.8319 A 1181.1023622047244 1181.1023622047244 0 0 0 3259.651 1646.8319 " stroke="blue" fill="none" />
<path d="M 1700.3491 1552.3438 A 1181.1023622047244 1181.1023622047244 0 0 0 3370.6802 1552.3438 " stroke="blue" fill="none" />
<path d="M 1589.3198 1552.3438 A 1181.1023622047244 1181.1023622047244 0 0 0 3259.651 1552.3438 " stroke="blue" fill="none" />
<path d="M 2002.6421 1401.9243 A 641.4899096538232 641.4899096538232 0 0 0 2909.846 1401.9243 " stroke="blue" fill="none" />
<path d="M 2045.249 1414.9615 A 661.8654032743822 661.8654032743822 0 0 0 2981.268 1414.9615 " stroke="blue" fill="none" />
<path d="M 2033.294 1420.9658 A 672.0531500846616 672.0531500846616 0 0 0 2983.7207 1420.9658 " stroke="blue" fill="none" />
<path d="M 2019.3483 1394.8914 A 631.302165593512 631.302165593512 0 0 0 2912.1445 1394.8914 " stroke="blue" fill="none" />
<path d="M 2051.761 1367.3353 A 594.6262795514772 594.6262795514772 0 0 0 2892.6895 1367.3353 " stroke="blue" fill="none" />
<path d="M 2057.512 1379.1111 A 610.926673347937 610.926673347937 0 0 0 2921.493 1379.1111 " stroke="blue" fill="none" />
<path d="M 2044.9922 1371.34 A 598.7013780005922 598.7013780005922 0 0 0 2891.6838 1371.34 " stroke="blue" fill="none" />
<path d="M 2025.1205 1374.4012 A 604.8140255367662 604.8140255367662 0 0 0 2880.4565 1374.4012 " stroke="blue" fill="none" />
<path d="M 2074.6501 1372.641 A 600.7389268126544 600.7389268126544 0 0 0 2924.2234 1372.641 " stroke="blue" fill="none" />
<path d="M 2027.567 1374.8605 A 606.851574898822 606.851574898822 0 0 0 2885.7847 1374.8605 " stroke="blue" fill="none" />
<path d="M 2030.4486 1370.2948 A 602.7764761747103 602.7764761747103 0 0 0 2882.9033 1370.2948 " stroke="blue" fill="none" />
<path d="M 2077.097 1370.2948 A 602.7764761747103 602.7764761747103 0 0 0 2929.5515 1370.2948 " stroke="blue" fill="none" />
<path d="M 2044.9922 1366.8513 A 598.7013780005922 598.7013780005922 0 0 0 2891.6838 1366.8513 " stroke="blue" fill="none" />
<path d="M 1331.866 1735.7765 A 1181.1023622047244 1181.1023622047244 0 0 0 3002.197 1735.7765 " stroke="blue" fill="none" />
<path d="M 1957.8035 1735.7765 A 1181.1023622047244 1181.1023622047244 0 0 0 3628.1345 1735.7765 " stroke="blue" fill="none" />
<path d="M 2019.3483 1389.4052 A 631.302165593512 631.302165593512 0 0 0 2912.1445 1389.4052 " stroke="blue" fill="none" />
<path d="M 1978.732 1412.5613 A 661.8654032743822 661.8654032743822 0 0 0 2914.751 1412.5613 " stroke="blue" fill="none" />
<path d="M 2050.1543 1396.781 A 641.4899096538232 641.4899096538232 0 0 0 2957.358 1396.781 " stroke="blue" fill="none" />
<path d="M 2060.5415 1366.8513 A 598.7013780005922 598.7013780005922 0 0 0 2907.2332 1366.8513 " stroke="blue" fill="none" />
<path d="M 2052.7668 1366.8513 A 598.7013780005922 598.7013780005922 0 0 0 2899.4585 1366.8513 " stroke="blue" fill="none" />
<path d="M 2068.3162 1366.8513 A 598.7013780005922 598.7013780005922 0 0 0 2915.0078 1366.8513 " stroke="blue" fill="none" />
<path d="M 1995.2842 1420.9658 A 672.0531500846616 672.0531500846616 0 0 0 2945.711 1420.9658 " stroke="blue" fill="none" />
<path d="M 2038.3531 1394.8914 A 631.302165593512 631.302165593512 0 0 0 2931.1492 1394.8914 " stroke="blue" fill="none" />
<path d="M 2060.5415 1371.34 A 598.7013780005922 598.7013780005922 0 0 0 2907.2332 1371.34 " stroke="blue" fill="none" />
<path d="M 2058.6658 1374.8605 A 606.851574898822 606.851574898822 0 0 0 2916.8835 1374.8605 " stroke="blue" fill="none" />
<path d="M 2038.3531 1389.4052 A 631.302165593512 631.302165593512 0 0 0 2931.1492 1389.4052 " stroke="blue" fill="none" />
<path d="M 2011.9905 1412.5613 A 661.8654032743822 661.8654032743822 0 0 0 2948.0095 1412.5613 " stroke="blue" fill="none" />
<path d="M 2052.3318 1374.4012 A 604.8140255367662 604.8140255367662 0 0 0 2907.6682 1374.4012 " stroke="blue" fill="none" />
<path d="M 2059.5356 1367.3353 A 594.6262795514772 594.6262795514772 0 0 0 2900.4644 1367.3353 " stroke="blue" fill="none" />
<path d="M 2026.3982 1401.9243 A 641.4899096538232 641.4899096538232 0 0 0 2933.6018 1401.9243 " stroke="blue" fill="none" />
<path d="M 1978.732 1414.9615 A 661.8654032743822 661.8654032743822 0 0 0 2914.751 1414.9615 " stroke="blue" fill="none" />
<path d="M 2050.1543 1401.9243 A 641.4899096538232 641.4899096538232 0 0 0 2957.358 1401.9243 " stroke="blue" fill="none" />
<path d="M 2014.2891 1420.9658 A 672.0531500846616 672.0531500846616 0 0 0 2964.7158 1420.9658 " stroke="blue" fill="none" />
<path d="M 2028.8507 1394.8914 A 631.302165593512 631.302165593512 0 0 0 2921.6467 1394.8914 " stroke="blue" fill="none" />
<path d="M 2038.5072 1379.1111 A 610.926673347937 610.926673347937 0 0 0 2902.488 1379.1111 " stroke="blue" fill="none" />
<path d="M 2067.3105 1367.3353 A 594.6262795514772 594.6262795514772 0 0 0 2908.239 1367.3353 " stroke="blue" fill="none" />
<path d="M 2052.7668 1371.34 A 598.7013780005922 598.7013780005922 0 0 0 2899.4585 1371.34 " stroke="blue" fill="none" />
<path d="M 2035.7767 1372.641 A 600.7389268126544 600.7389268126544 0 0 0 2885.3499 1372.641 " stroke="blue" fill="none" />
<path d="M 2079.5435 1374.4012 A 604.8140255367662 604.8140255367662 0 0 0 2934.8796 1374.4012 " stroke="blue" fill="none" />
<path d="M 2043.1165 1374.8605 A 606.851574898822 606.851574898822 0 0 0 2901.3342 1374.8605 " stroke="blue" fill="none" />
<path d="M 2028.8507 1389.4052 A 631.302165593512 631.302165593512 0 0 0 2921.6467 1389.4052 " stroke="blue" fill="none" />
<path d="M 2002.6421 1396.781 A 641.4899096538232 641.4899096538232 0 0 0 2909.846 1396.781 " stroke="blue" fill="none" />
<path d="M 2045.249 1412.5613 A 661.8654032743822 661.8654032743822 0 0 0 2981.268 1412.5613 " stroke="blue" fill="none" />
<path d="M 1976.2794 1420.9658 A 672.0531500846616 672.0531500846616 0 0 0 2926.706 1420.9658 " stroke="blue" fill="none" />
<path d="M 2047.8556 1394.8914 A 631.302165593512 631.302165593512 0 0 0 2940.6516 1394.8914 " stroke="blue" fill="none" />
<path d="M 2068.3162 1371.34 A 598.7013780005922 598.7013780005922 0 0 0 2915.0078 1371.34 " stroke="blue" fill="none" />
<path d="M 2074.2153 1374.8605 A 606.851574898822 606.851574898822 0 0 0 2932.433 1374.8605 " stroke="blue" fill="none" />
<path d="M 2047.8556 1389.4052 A 631.302165593512 631.302165593512 0 0 0 2940.6516 1389.4052 " stroke="blue" fill="none" />
<path d="M 2026.3982 1396.781 A 641.4899096538232 641.4899096538232 0 0 0 2933.6018 1396.781 " stroke="blue" fill="none" />
<path d="M 2055.2134 1372.641 A 600.7389268126544 600.7389268126544 0 0 0 2904.7866 1372.641 " stroke="blue" fill="none" />
<path d="M 2048.0095 1379.1111 A 610.926673347937 610.926673347937 0 0 0 2911.9905 1379.1111 " stroke="blue" fill="none" />
<path d="M 2011.9905 1414.9615 A 661.8654032743822 661.8654032743822 0 0 0 2948.0095 1414.9615 " stroke="blue" fill="none" />
<path d="M 2014.5201 1401.9243 A 641.4899096538232 641.4899096538232 0 0 0 2921.7239 1401.9243 " stroke="blue" fill="none" />
<path d="M 1995.3612 1414.9615 A 661.8654032743822 661.8654032743822 0 0 0 2931.3804 1414.9615 " stroke="blue" fill="none" />
<path d="M 1997.8138 1408.6144 A 651.6776564641027 651.6776564641027 0 0 0 2919.4253 1408.6144 " stroke="blue" fill="none" />
<path d="M 2012.0675 1408.6144 A 651.6776564641027 651.6776564641027 0 0 0 2933.679 1408.6144 " stroke="blue" fill="none" />
<path d="M 2055.6484 1367.3353 A 594.6262795514772 594.6262795514772 0 0 0 2896.577 1367.3353 " stroke="blue" fill="none" />
<path d="M 2043.2584 1379.1111 A 610.926673347937 610.926673347937 0 0 0 2907.2393 1379.1111 " stroke="blue" fill="none" />
<path d="M 1410.1079 1826.1228 A 1181.1023622047244 1181.1023622047244 0 0 0 3080.439 1826.1228 " stroke="blue" fill="none" />
<path d="M 1566.5922 1826.1228 A 1181.1023622047244 1181.1023622047244 0 0 0 3236.923 1826.1228 " stroke="blue" fill="none" />
<path d="M 2038.7262 1374.4012 A 604.8140255367662 604.8140255367662 0 0 0 2894.0623 1374.4012 " stroke="blue" fill="none" />
<path d="M 2045.495 1372.641 A 600.7389268126544 600.7389268126544 0 0 0 2895.068 1372.641 " stroke="blue" fill="none" />
<path d="M 2036.2795 1373.6614 A 602.7764761747103 602.7764761747103 0 0 0 2888.7341 1373.6614 " stroke="blue" fill="none" />
<path d="M 2047.9417 1373.6614 A 602.7764761747103 602.7764761747103 0 0 0 2900.3962 1373.6614 " stroke="blue" fill="none" />
<path d="M 1995.3612 1412.5613 A 661.8654032743822 661.8654032743822 0 0 0 2931.3804 1412.5613 " stroke="blue" fill="none" />
<path d="M 2014.5201 1396.781 A 641.4899096538232 641.4899096538232 0 0 0 2921.7239 1396.781 " stroke="blue" fill="none" />
<path d="M 1997.8138 1404.4998 A 651.6776564641027 651.6776564641027 0 0 0 2919.4253 1404.4998 " stroke="blue" fill="none" />
<path d="M 2012.0675 1404.4998 A 651.6776564641027 651.6776564641027 0 0 0 2933.679 1404.4998 " stroke="blue" fill="none" />
<path d="M 2028.6198 1412.5613 A 661.8654032743822 661.8654032743822 0 0 0 2964.6387 1412.5613 " stroke="blue" fill="none" />
<path d="M 2038.2761 1396.781 A 641.4899096538232 641.4899096538232 0 0 0 2945.48 1396.781 " stroke="blue" fill="none" />
<path d="M 2026.3212 1404.4998 A 651.6776564641027 651.6776564641027 0 0 0 2947.9326 1404.4998 " stroke="blue" fill="none" />
<path d="M 2040.5747 1404.4998 A 651.6776564641027 651.6776564641027 0 0 0 2962.186 1404.4998 " stroke="blue" fill="none" />
<path d="M 2065.9377 1374.4012 A 604.8140255367662 604.8140255367662 0 0 0 2921.274 1374.4012 " stroke="blue" fill="none" />
<path d="M 2064.932 1372.641 A 600.7389268126544 600.7389268126544 0 0 0 2914.505 1372.641 " stroke="blue" fill="none" />
<path d="M 2059.6038 1373.6614 A 602.7764761747103 602.7764761747103 0 0 0 2912.0583 1373.6614 " stroke="blue" fill="none" />
<path d="M 2071.2659 1373.6614 A 602.7764761747103 602.7764761747103 0 0 0 2923.7205 1373.6614 " stroke="blue" fill="none" />
<path d="M 2063.423 1367.3353 A 594.6262795514772 594.6262795514772 0 0 0 2904.3516 1367.3353 " stroke="blue" fill="none" />
<path d="M 2052.7607 1379.1111 A 610.926673347937 610.926673347937 0 0 0 2916.7417 1379.1111 " stroke="blue" fill="none" />
<path d="M 1723.0769 1826.1228 A 1181.1023622047244 1181.1023622047244 0 0 0 3393.408 1826.1228 " stroke="blue" fill="none" />
<path d="M 1879.5612 1826.1228 A 1181.1023622047244 1181.1023622047244 0 0 0 3549.892 1826.1228 " stroke="blue" fill="none" />
<path d="M 2038.2761 1401.9243 A 641.4899096538232 641.4899096538232 0 0 0 2945.48 1401.9243 " stroke="blue" fill="none" />
<path d="M 2028.6198 1414.9615 A 661.8654032743822 661.8654032743822 0 0 0 2964.6387 1414.9615 " stroke="blue" fill="none" />
<path d="M 2026.3212 1408.6144 A 651.6776564641027 651.6776564641027 0 0 0 2947.9326 1408.6144 " stroke="blue" fill="none" />
<path d="M 2040.5747 1408.6144 A 651.6776564641027 651.6776564641027 0 0 0 2962.186 1408.6144 " stroke="blue" fill="none" />
<path d="M 2036.9343 1414.9615 A 661.8654032743822 661.8654032743822 0 0 0 2972.9534 1414.9615 " stroke="blue" fill="none" />
<path d="M 2020.3052 1414.9615 A 661.8654032743822 661.8654032743822 0 0 0 2956.3242 1414.9615 " stroke="blue" fill="none" />
<path d="M 2032.3372 1401.9243 A 641.4899096538232 641.4899096538232 0 0 0 2939.5408 1401.9243 " stroke="blue" fill="none" />
<path d="M 2055.1365 1379.1111 A 610.926673347937 610.926673347937 0 0 0 2919.1172 1379.1111 " stroke="blue" fill="none" />
<path d="M 2050.3853 1379.1111 A 610.926673347937 610.926673347937 0 0 0 2914.366 1379.1111 " stroke="blue" fill="none" />
<path d="M 2061.4795 1367.3353 A 594.6262795514772 594.6262795514772 0 0 0 2902.408 1367.3353 " stroke="blue" fill="none" />
<path d="M 2069.791 1372.641 A 600.7389268126544 600.7389268126544 0 0 0 2919.3643 1372.641 " stroke="blue" fill="none" />
<path d="M 2060.0728 1372.641 A 600.7389268126544 600.7389268126544 0 0 0 2909.6458 1372.641 " stroke="blue" fill="none" />
<path d="M 2059.1348 1374.4012 A 604.8140255367662 604.8140255367662 0 0 0 2914.471 1374.4012 " stroke="blue" fill="none" />
<path d="M 2044.2152 1396.781 A 641.4899096538232 641.4899096538232 0 0 0 2951.419 1396.781 " stroke="blue" fill="none" />
<path d="M 2032.3372 1396.781 A 641.4899096538232 641.4899096538232 0 0 0 2939.5408 1396.781 " stroke="blue" fill="none" />
<path d="M 2020.3052 1412.5613 A 661.8654032743822 661.8654032743822 0 0 0 2956.3242 1412.5613 " stroke="blue" fill="none" />
<path d="M 2020.4591 1396.781 A 641.4899096538232 641.4899096538232 0 0 0 2927.6628 1396.781 " stroke="blue" fill="none" />
<path d="M 2008.581 1396.781 A 641.4899096538232 641.4899096538232 0 0 0 2915.785 1396.781 " stroke="blue" fill="none" />
<path d="M 1987.0466 1412.5613 A 661.8654032743822 661.8654032743822 0 0 0 2923.0657 1412.5613 " stroke="blue" fill="none" />
<path d="M 2050.3542 1372.641 A 600.7389268126544 600.7389268126544 0 0 0 2899.9272 1372.641 " stroke="blue" fill="none" />
<path d="M 2040.6359 1372.641 A 600.7389268126544 600.7389268126544 0 0 0 2890.209 1372.641 " stroke="blue" fill="none" />
<path d="M 2031.9233 1374.4012 A 604.8140255367662 604.8140255367662 0 0 0 2887.2595 1374.4012 " stroke="blue" fill="none" />
<path d="M 2045.634 1379.1111 A 610.926673347937 610.926673347937 0 0 0 2909.6147 1379.1111 " stroke="blue" fill="none" />
<path d="M 2040.8828 1379.1111 A 610.926673347937 610.926673347937 0 0 0 2904.8635 1379.1111 " stroke="blue" fill="none" />
<path d="M 2053.7046 1367.3353 A 594.6262795514772 594.6262795514772 0 0 0 2894.6333 1367.3353 " stroke="blue" fill="none" />
<path d="M 2003.6759 1414.9615 A 661.8654032743822 661.8654032743822 0 0 0 2939.6948 1414.9615 " stroke="blue" fill="none" />
<path d="M 1987.0466 1414.9615 A 661.8654032743822 661.8654032743822 0 0 0 2923.0657 1414.9615 " stroke="blue" fill="none" />
<path d="M 2008.581 1401.9243 A 641.4899096538232 641.4899096538232 0 0 0 2915.785 1401.9243 " stroke="blue" fill="none" />
<path d="M 2020.4591 1401.9243 A 641.4899096538232 641.4899096538232 0 0 0 2927.6628 1401.9243 " stroke="blue" fill="none" />
<path d="M 2057.592 1367.3353 A 594.6262795514772 594.6262795514772 0 0 0 2898.5205 1367.3353 " stroke="blue" fill="none" />
<path d="M 2045.529 1374.4012 A 604.8140255367662 604.8140255367662 0 0 0 2900.8652 1374.4012 " stroke="blue" fill="none" />
<path d="M 2003.6759 1412.5613 A 661.8654032743822 661.8654032743822 0 0 0 2939.6948 1412.5613 " stroke="blue" fill="none" />
<path d="M 2036.9343 1412.5613 A 661.8654032743822 661.8654032743822 0 0 0 2972.9534 1412.5613 " stroke="blue" fill="none" />
<path d="M 2072.7405 1374.4012 A 604.8140255367662 604.8140255367662 0 0 0 2928.0767 1374.4012 " stroke="blue" fill="none" />
<path d="M 2065.3667 1367.3353 A 594.6262795514772 594.6262795514772 0 0 0 2906.2954 1367.3353 " stroke="blue" fill="none" />
<path d="M 2044.2152 1401.9243 A 641.4899096538232 641.4899096538232 0 0 0 2951.419 1401.9243 " stroke="blue" fill="none" />
<!-- radmm = 25 -->
<!-- dimensionCubemm = 40.0 -->
<!-- adjustFr = 1.1 -->
<!-- adjustBa = 0.9 -->
<!-- scArcfr = 1.25 -->
<!-- scArcBa = 0.25 -->
<!-- ang = 90 -->
</svg>
