<svg width="4960" height="8769" xmlns="http://www.w3.org/2000/svg">

<path d="M 1965.626 1418.6615 A 668.7937788371964 668.7937788371964 0 0 0 2911.443 1418.6615 " stroke="blue" fill="none" />
<path d="M 2048.5571 1418.661 A 668.7930713253697 668.7930713253697 0 0 0 2994.3733 1418.661 " stroke="blue" fill="none" />
<path d="M 2014.0221 1393.9883 A 629.6721262138659 629.6721262138659 0 0 0 2904.513 1393.9883 " stroke="blue" fill="none" />
<path d="M 2055.487 1393.9883 A 629.6721262138659 629.6721262138659 0 0 0 2945.978 1393.9883 " stroke="blue" fill="none" />
<path d="M 2030.1538 1383.7692 A 616.6318111766981 616.6318111766981 0 0 0 2902.203 1383.7692 " stroke="blue" fill="none" />
<path d="M 2057.797 1383.7692 A 616.6318111766981 616.6318111766981 0 0 0 2929.8462 1383.7692 " stroke="blue" fill="none" />
<path d="M 1997.8903 1400.2175 A 642.7124412510339 642.7124412510339 0 0 0 2906.823 1400.2175 " stroke="blue" fill="none" />
<path d="M 2053.177 1400.2175 A 642.7124412510339 642.7124412510339 0 0 0 2962.1099 1400.2175 " stroke="blue" fill="none" />
<path d="M 2030.1538 1379.7792 A 616.6318111766981 616.6318111766981 0 0 0 2902.203 1379.7792 " stroke="blue" fill="none" />
<path d="M 2057.797 1379.7792 A 616.6318111766981 616.6318111766981 0 0 0 2929.8462 1379.7792 " stroke="blue" fill="none" />
<path d="M 2014.0221 1388.0034 A 629.6721262138659 629.6721262138659 0 0 0 2904.513 1388.0034 " stroke="blue" fill="none" />
<path d="M 2055.487 1388.0034 A 629.6721262138659 629.6721262138659 0 0 0 2945.978 1388.0034 " stroke="blue" fill="none" />
<path d="M 1913.3411 1481.079 A 757.0951144526323 757.0951144526323 0 0 0 2984.0352 1481.079 " stroke="blue" fill="none" />
<path d="M 1487.8154 1780.8563 A 1181.1023622047244 1181.1023622047244 0 0 0 3158.1465 1780.8563 " stroke="blue" fill="none" />
<path d="M 1963.0331 1441.8296 A 701.5804700025424 701.5804700025424 0 0 0 2955.2178 1441.8296 " stroke="blue" fill="none" />
<path d="M 1951.3881 1474.3448 A 747.5702312048965 747.5702312048965 0 0 0 3008.612 1474.3448 " stroke="blue" fill="none" />
<path d="M 1922.5122 1503.2198 A 757.0951144526323 757.0951144526323 0 0 0 2993.2063 1503.2198 " stroke="blue" fill="none" />
<path d="M 1533.8052 1891.8856 A 1181.1023622047244 1181.1023622047244 0 0 0 3204.1362 1891.8856 " stroke="blue" fill="none" />
<path d="M 1969.1472 1456.5902 A 701.5804700025424 701.5804700025424 0 0 0 2961.3318 1456.5902 " stroke="blue" fill="none" />
<path d="M 1944.653 1512.3909 A 757.0951144526323 757.0951144526323 0 0 0 3015.3472 1512.3909 " stroke="blue" fill="none" />
<path d="M 1644.8345 1937.8754 A 1181.1023622047244 1181.1023622047244 0 0 0 3315.1655 1937.8754 " stroke="blue" fill="none" />
<path d="M 1983.9077 1462.7042 A 701.5804700025424 701.5804700025424 0 0 0 2976.0923 1462.7042 " stroke="blue" fill="none" />
<path d="M 1966.7938 1503.2197 A 757.0951144526323 757.0951144526323 0 0 0 3037.488 1503.2197 " stroke="blue" fill="none" />
<path d="M 1755.8638 1891.8856 A 1181.1023622047244 1181.1023622047244 0 0 0 3426.1948 1891.8856 " stroke="blue" fill="none" />
<path d="M 1998.6683 1456.5901 A 701.5804700025424 701.5804700025424 0 0 0 2990.8528 1456.5901 " stroke="blue" fill="none" />
<path d="M 1975.9647 1481.079 A 757.0951144526323 757.0951144526323 0 0 0 3046.659 1481.079 " stroke="blue" fill="none" />
<path d="M 1801.8535 1780.8563 A 1181.1023622047244 1181.1023622047244 0 0 0 3472.1846 1780.8563 " stroke="blue" fill="none" />
<path d="M 2004.7822 1441.8296 A 701.5804700025424 701.5804700025424 0 0 0 2996.9668 1441.8296 " stroke="blue" fill="none" />
<path d="M 1966.7938 1458.9381 A 757.0951144526323 757.0951144526323 0 0 0 3037.488 1458.9381 " stroke="blue" fill="none" />
<path d="M 1755.8638 1669.827 A 1181.1023622047244 1181.1023622047244 0 0 0 3426.1948 1669.827 " stroke="blue" fill="none" />
<path d="M 1998.6683 1427.069 A 701.5804700025424 701.5804700025424 0 0 0 2990.8528 1427.069 " stroke="blue" fill="none" />
<path d="M 1944.653 1449.7671 A 757.0951144526323 757.0951144526323 0 0 0 3015.3472 1449.7671 " stroke="blue" fill="none" />
<path d="M 1644.8345 1623.8373 A 1181.1023622047244 1181.1023622047244 0 0 0 3315.1655 1623.8373 " stroke="blue" fill="none" />
<path d="M 1983.9077 1420.9551 A 701.5804700025424 701.5804700025424 0 0 0 2976.0923 1420.9551 " stroke="blue" fill="none" />
<path d="M 1895.8734 1529.8518 A 826.0797562561636 826.0797562561636 0 0 0 3064.1267 1529.8518 " stroke="blue" fill="none" />
<path d="M 1922.5122 1458.9381 A 757.0951144526323 757.0951144526323 0 0 0 2993.2063 1458.9381 " stroke="blue" fill="none" />
<path d="M 1533.8052 1669.827 A 1181.1023622047244 1181.1023622047244 0 0 0 3204.1362 1669.827 " stroke="blue" fill="none" />
<path d="M 1969.1472 1427.069 A 701.5804700025424 701.5804700025424 0 0 0 2961.3318 1427.069 " stroke="blue" fill="none" />
<path d="M 1936.8854 2195.6265 A 1299.1863676882167 1299.1863676882167 0 0 0 3774.2124 2195.6265 " stroke="blue" fill="none" />
<path d="M 1936.8854 1529.9714 A 1299.1863676882167 1299.1863676882167 0 0 0 3774.2124 1529.9714 " stroke="blue" fill="none" />
<path d="M 1957.8035 1367.7662 A 1181.1023622047244 1181.1023622047244 0 0 0 3628.1345 1367.7662 " stroke="blue" fill="none" />
<path d="M 1978.729 1474.4246 A 1062.9746388262652 1062.9746388262652 0 0 0 3482.0022 1474.4246 " stroke="blue" fill="none" />
<path d="M 1978.729 1918.1946 A 1062.9746388262652 1062.9746388262652 0 0 0 3482.0022 1918.1946 " stroke="blue" fill="none" />
<path d="M 1957.803 2193.9465 A 1181.1023622047244 1181.1023622047244 0 0 0 3628.134 2193.9465 " stroke="blue" fill="none" />
<path d="M 1957.8035 1778.283 A 1181.1023622047244 1181.1023622047244 0 0 0 3628.1345 1778.283 " stroke="blue" fill="none" />
<path d="M 1185.7882 2195.6265 A 1299.1863676882167 1299.1863676882167 0 0 0 3023.1152 2195.6265 " stroke="blue" fill="none" />
<path d="M 1185.7882 1533.0594 A 1299.1863676882167 1299.1863676882167 0 0 0 3023.1152 1533.0594 " stroke="blue" fill="none" />
<path d="M 1331.866 1367.7662 A 1181.1023622047244 1181.1023622047244 0 0 0 3002.197 1367.7662 " stroke="blue" fill="none" />
<path d="M 1477.9976 1476.4832 A 1062.9746388262652 1062.9746388262652 0 0 0 2981.2708 1476.4832 " stroke="blue" fill="none" />
<path d="M 1477.9976 1918.1946 A 1062.9746388262652 1062.9746388262652 0 0 0 2981.2708 1918.1946 " stroke="blue" fill="none" />
<path d="M 1331.8655 2193.9465 A 1181.1023622047244 1181.1023622047244 0 0 0 3002.1965 2193.9465 " stroke="blue" fill="none" />
<path d="M 1331.866 1780.8563 A 1181.1023622047244 1181.1023622047244 0 0 0 3002.197 1780.8563 " stroke="blue" fill="none" />
<path d="M 1185.7882 1864.3429 A 1299.1863676882167 1299.1863676882167 0 0 0 3023.1152 1864.3429 " stroke="blue" fill="none" />
<path d="M 1624.1023 1407.0934 A 944.8691334311418 944.8691334311418 0 0 0 2960.349 1407.0934 " stroke="blue" fill="none" />
<path d="M 1770.207 1392.5061 A 826.7631493215486 826.7631493215486 0 0 0 2939.4268 1392.5061 " stroke="blue" fill="none" />
<path d="M 1477.9976 1697.3389 A 1062.9746388262652 1062.9746388262652 0 0 0 2981.2708 1697.3389 " stroke="blue" fill="none" />
<path d="M 1770.207 1668.164 A 826.7631493215486 826.7631493215486 0 0 0 2939.4268 1668.164 " stroke="blue" fill="none" />
<path d="M 1624.1023 1820.5804 A 944.8691334311418 944.8691334311418 0 0 0 2960.349 1820.5804 " stroke="blue" fill="none" />
<path d="M 1331.8655 1780.8563 A 1181.1023622047244 1181.1023622047244 0 0 0 3002.1965 1780.8563 " stroke="blue" fill="none" />
<path d="M 1331.8655 1780.8563 A 1181.1023622047244 1181.1023622047244 0 0 0 3002.1965 1780.8563 " stroke="blue" fill="none" />
<path d="M 1331.8655 1780.8563 A 1181.1023622047244 1181.1023622047244 0 0 0 3002.1965 1780.8563 " stroke="blue" fill="none" />
<path d="M 1185.7882 2029.9844 A 1299.1863676882167 1299.1863676882167 0 0 0 3023.1152 2029.9844 " stroke="blue" fill="none" />
<path d="M 1404.9448 1459.8013 A 1122.0281095955315 1122.0281095955315 0 0 0 2991.7322 1459.8013 " stroke="blue" fill="none" />
<path d="M 1916.3123 1371.0681 A 708.6571652119554 708.6571652119554 0 0 0 2918.505 1371.0681 " stroke="blue" fill="none" />
<path d="M 1477.9976 1586.9113 A 1062.9746388262652 1062.9746388262652 0 0 0 2981.2708 1586.9113 " stroke="blue" fill="none" />
<path d="M 1624.102 1800.0298 A 944.8691334311418 944.8691334311418 0 0 0 2960.3486 1800.0298 " stroke="blue" fill="none" />
<path d="M 1843.2596 1602.231 A 767.7101572667519 767.7101572667519 0 0 0 2928.9658 1602.231 " stroke="blue" fill="none" />
<path d="M 1770.207 1475.1211 A 826.7631493215486 826.7631493215486 0 0 0 2939.4268 1475.1211 " stroke="blue" fill="none" />
<path d="M 1331.8655 1987.4014 A 1181.1023622047244 1181.1023622047244 0 0 0 3002.1965 1987.4014 " stroke="blue" fill="none" />
<path d="M 1770.207 1585.5488 A 826.7631493215486 826.7631493215486 0 0 0 2939.4268 1585.5488 " stroke="blue" fill="none" />
<path d="M 1185.7882 1698.7014 A 1299.1863676882167 1299.1863676882167 0 0 0 3023.1152 1698.7014 " stroke="blue" fill="none" />
<path d="M 1843.2598 1374.9368 A 767.7101572667519 767.7101572667519 0 0 0 2928.9658 1374.9368 " stroke="blue" fill="none" />
<path d="M 1624.102 1427.6444 A 944.8691334311418 944.8691334311418 0 0 0 2960.3486 1427.6444 " stroke="blue" fill="none" />
<path d="M 1477.9976 1807.7665 A 1062.9746388262652 1062.9746388262652 0 0 0 2981.2708 1807.7665 " stroke="blue" fill="none" />
<path d="M 1916.3121 1522.5977 A 708.6571652119554 708.6571652119554 0 0 0 2918.5046 1522.5977 " stroke="blue" fill="none" />
<path d="M 1404.9448 2018.3793 A 1122.0281095955315 1122.0281095955315 0 0 0 2991.7322 2018.3793 " stroke="blue" fill="none" />
<path d="M 1624.1023 1696.658 A 944.8691334311418 944.8691334311418 0 0 0 2960.349 1696.658 " stroke="blue" fill="none" />
<path d="M 1331.866 1574.3113 A 1181.1023622047244 1181.1023622047244 0 0 0 3002.197 1574.3113 " stroke="blue" fill="none" />
<path d="M 1624.1023 1531.0162 A 944.8691334311418 944.8691334311418 0 0 0 2960.349 1531.0162 " stroke="blue" fill="none" />
<path d="M 1185.7882 2112.8052 A 1299.1863676882167 1299.1863676882167 0 0 0 3023.1152 2112.8052 " stroke="blue" fill="none" />
<path d="M 1295.3665 1493.8618 A 1210.6072386418741 1210.6072386418741 0 0 0 3007.4236 1493.8618 " stroke="blue" fill="none" />
<path d="M 1989.3651 1365.4868 A 649.6039373198832 649.6039373198832 0 0 0 2908.0437 1365.4868 " stroke="blue" fill="none" />
<path d="M 1477.9976 1531.6974 A 1062.9746388262652 1062.9746388262652 0 0 0 2981.2708 1531.6974 " stroke="blue" fill="none" />
<path d="M 1551.0498 1860.8246 A 1003.9218861287035 1003.9218861287035 0 0 0 2970.8098 1860.8246 " stroke="blue" fill="none" />
<path d="M 1952.8389 1485.3492 A 679.1303154286437 679.1303154286437 0 0 0 2913.2742 1485.3492 " stroke="blue" fill="none" />
<path d="M 1624.102 1489.6058 A 944.8691334311418 944.8691334311418 0 0 0 2960.3486 1489.6058 " stroke="blue" fill="none" />
<path d="M 1331.8655 2090.6736 A 1181.1023622047244 1181.1023622047244 0 0 0 3002.1965 2090.6736 " stroke="blue" fill="none" />
<path d="M 1624.102 1738.0684 A 944.8691334311418 944.8691334311418 0 0 0 2960.3486 1738.0684 " stroke="blue" fill="none" />
<path d="M 1185.7882 1781.5222 A 1299.1863676882167 1299.1863676882167 0 0 0 3023.1152 1781.5222 " stroke="blue" fill="none" />
<path d="M 1733.6815 1388.4463 A 856.2892863130944 856.2892863130944 0 0 0 2944.6575 1388.4463 " stroke="blue" fill="none" />
<path d="M 1697.1548 1408.3625 A 885.8159020191102 885.8159020191102 0 0 0 2949.8877 1408.3625 " stroke="blue" fill="none" />
<path d="M 1477.9976 1752.5527 A 1062.9746388262652 1062.9746388262652 0 0 0 2981.2708 1752.5527 " stroke="blue" fill="none" />
<path d="M 1843.2599 1597.0931 A 767.709917909517 767.709917909517 0 0 0 2928.9656 1597.0931 " stroke="blue" fill="none" />
<path d="M 1514.5239 1922.0485 A 1033.4482624774841 1033.4482624774841 0 0 0 2976.0405 1922.0485 " stroke="blue" fill="none" />
<path d="M 1843.2598 1509.2892 A 767.7101572667519 767.7101572667519 0 0 0 2928.9658 1509.2892 " stroke="blue" fill="none" />
<path d="M 1331.866 1677.5836 A 1181.1023622047244 1181.1023622047244 0 0 0 3002.197 1677.5836 " stroke="blue" fill="none" />
<path d="M 1843.2598 1467.8788 A 767.7101572667519 767.7101572667519 0 0 0 2928.9658 1467.8788 " stroke="blue" fill="none" />
<path d="M 1185.7882 1947.1637 A 1299.1863676882167 1299.1863676882167 0 0 0 3023.1152 1947.1637 " stroke="blue" fill="none" />
<path d="M 1514.5239 1430.8784 A 1033.4482624774841 1033.4482624774841 0 0 0 2976.0405 1430.8784 " stroke="blue" fill="none" />
<path d="M 1843.26 1380.0745 A 767.709917909517 767.709917909517 0 0 0 2928.9658 1380.0745 " stroke="blue" fill="none" />
<path d="M 1477.9976 1642.125 A 1062.9746388262652 1062.9746388262652 0 0 0 2981.2708 1642.125 " stroke="blue" fill="none" />
<path d="M 1697.1548 1735.8092 A 885.8159020191102 885.8159020191102 0 0 0 2949.8877 1735.8092 " stroke="blue" fill="none" />
<path d="M 1733.6815 1713.9742 A 856.2892863130944 856.2892863130944 0 0 0 2944.6575 1713.9742 " stroke="blue" fill="none" />
<path d="M 1916.3121 1433.0294 A 708.6571652119554 708.6571652119554 0 0 0 2918.5046 1433.0294 " stroke="blue" fill="none" />
<path d="M 1331.8655 1884.1287 A 1181.1023622047244 1181.1023622047244 0 0 0 3002.1965 1884.1287 " stroke="blue" fill="none" />
<path d="M 1916.3121 1460.6364 A 708.6571652119554 708.6571652119554 0 0 0 2918.5046 1460.6364 " stroke="blue" fill="none" />
<path d="M 1185.7882 1615.8801 A 1299.1863676882167 1299.1863676882167 0 0 0 3023.1152 1615.8801 " stroke="blue" fill="none" />
<path d="M 1952.839 1366.5648 A 679.1303154286437 679.1303154286437 0 0 0 2913.2742 1366.5648 " stroke="blue" fill="none" />
<path d="M 1551.0498 1450.3514 A 1003.9218861287035 1003.9218861287035 0 0 0 2970.8098 1450.3514 " stroke="blue" fill="none" />
<path d="M 1477.9976 1862.9803 A 1062.9746388262652 1062.9746388262652 0 0 0 2981.2708 1862.9803 " stroke="blue" fill="none" />
<path d="M 1989.3644 1444.6771 A 649.6044089944344 649.6044089944344 0 0 0 2908.0437 1444.6771 " stroke="blue" fill="none" />
<path d="M 1295.3665 2109.5715 A 1210.6072386418741 1210.6072386418741 0 0 0 3007.4236 2109.5715 " stroke="blue" fill="none" />
<path d="M 1404.9448 1925.4371 A 1122.0281095955315 1122.0281095955315 0 0 0 2991.7322 1925.4371 " stroke="blue" fill="none" />
<path d="M 1331.866 1471.0386 A 1181.1023622047244 1181.1023622047244 0 0 0 3002.197 1471.0386 " stroke="blue" fill="none" />
<path d="M 1404.9448 1552.7429 A 1122.0281095955315 1122.0281095955315 0 0 0 2991.7322 1552.7429 " stroke="blue" fill="none" />
<path d="M 1185.7882 2154.2156 A 1299.1863676882167 1299.1863676882167 0 0 0 3023.1152 2154.2156 " stroke="blue" fill="none" />
<path d="M 1240.5769 1512.8185 A 1254.8971833206538 1254.8971833206538 0 0 0 3015.2695 1512.8185 " stroke="blue" fill="none" />
<path d="M 2025.8909 1363.9807 A 620.0777950483982 620.0777950483982 0 0 0 2902.8132 1363.9807 " stroke="blue" fill="none" />
<path d="M 1477.9976 1504.0905 A 1062.9746388262652 1062.9746388262652 0 0 0 2981.2708 1504.0905 " stroke="blue" fill="none" />
<path d="M 1514.5233 1889.938 A 1033.4485159145565 1033.4485159145565 0 0 0 2976.0403 1889.938 " stroke="blue" fill="none" />
<path d="M 2007.6277 1424.9828 A 634.8411020214163 634.8411020214163 0 0 0 2905.4285 1424.9828 " stroke="blue" fill="none" />
<path d="M 1551.0498 1486.4956 A 1003.9218861287035 1003.9218861287035 0 0 0 2970.8098 1486.4956 " stroke="blue" fill="none" />
<path d="M 1331.8655 2142.31 A 1181.1023622047244 1181.1023622047244 0 0 0 3002.1965 2142.31 " stroke="blue" fill="none" />
<path d="M 1551.0498 1824.6808 A 1003.9218861287035 1003.9218861287035 0 0 0 2970.8098 1824.6808 " stroke="blue" fill="none" />
<path d="M 1185.7882 1822.9325 A 1299.1863676882167 1299.1863676882167 0 0 0 3023.1152 1822.9325 " stroke="blue" fill="none" />
<path d="M 1678.8918 1397.1277 A 900.5792098721181 900.5792098721181 0 0 0 2952.5032 1397.1277 " stroke="blue" fill="none" />
<path d="M 1733.6813 1400.0061 A 856.2893003929319 856.2893003929319 0 0 0 2944.6572 1400.0061 " stroke="blue" fill="none" />
<path d="M 1477.9976 1724.9458 A 1062.9746388262652 1062.9746388262652 0 0 0 2981.2708 1724.9458 " stroke="blue" fill="none" />
<path d="M 1806.7335 1633.0565 A 797.2365336155328 797.2365336155328 0 0 0 2934.1963 1633.0565 " stroke="blue" fill="none" />
<path d="M 1569.3136 1871.9563 A 989.1583600382166 989.1583600382166 0 0 0 2968.1948 1871.9563 " stroke="blue" fill="none" />
<path d="M 1952.839 1431.1334 A 679.1303154286437 679.1303154286437 0 0 0 2913.2742 1431.1334 " stroke="blue" fill="none" />
<path d="M 1331.8655 1729.22 A 1181.1023622047244 1181.1023622047244 0 0 0 3002.1965 1729.22 " stroke="blue" fill="none" />
<path d="M 1952.839 1420.7809 A 679.1303154286437 679.1303154286437 0 0 0 2913.2742 1420.7809 " stroke="blue" fill="none" />
<path d="M 1185.7882 1988.5741 A 1299.1863676882167 1299.1863676882167 0 0 0 3023.1152 1988.5741 " stroke="blue" fill="none" />
<path d="M 1459.7344 1444.6979 A 1077.7382071562638 1077.7382071562638 0 0 0 2983.8865 1444.6979 " stroke="blue" fill="none" />
<path d="M 1879.7859 1375.1432 A 738.1837809179711 738.1837809179711 0 0 0 2923.7354 1375.1432 " stroke="blue" fill="none" />
<path d="M 1477.9976 1614.5182 A 1062.9746388262652 1062.9746388262652 0 0 0 2981.2708 1614.5182 " stroke="blue" fill="none" />
<path d="M 1660.6284 1768.3475 A 915.3425318049633 915.3425318049633 0 0 0 2955.1182 1768.3475 " stroke="blue" fill="none" />
<path d="M 1788.4708 1658.7444 A 811.9993627540708 811.9993627540708 0 0 0 2936.8113 1658.7444 " stroke="blue" fill="none" />
<path d="M 1843.2599 1457.526 A 767.709917909517 767.709917909517 0 0 0 2928.9656 1457.526 " stroke="blue" fill="none" />
<path d="M 1331.8655 1935.765 A 1181.1023622047244 1181.1023622047244 0 0 0 3002.1965 1935.765 " stroke="blue" fill="none" />
<path d="M 1843.2599 1519.6416 A 767.709917909517 767.709917909517 0 0 0 2928.9656 1519.6416 " stroke="blue" fill="none" />
<path d="M 1185.7882 1657.291 A 1299.1863676882167 1299.1863676882167 0 0 0 3023.1152 1657.291 " stroke="blue" fill="none" />
<path d="M 1898.0493 1370.1086 A 723.4202337077284 723.4202337077284 0 0 0 2921.12 1370.1086 " stroke="blue" fill="none" />
<path d="M 1587.5762 1438.5696 A 974.395284502525 974.395284502525 0 0 0 2965.579 1438.5696 " stroke="blue" fill="none" />
<path d="M 1477.9976 1835.3734 A 1062.9746388262652 1062.9746388262652 0 0 0 2981.2708 1835.3734 " stroke="blue" fill="none" />
<path d="M 1952.8386 1484.0652 A 679.1305495059396 679.1305495059396 0 0 0 2913.2742 1484.0652 " stroke="blue" fill="none" />
<path d="M 1350.1561 2064.6174 A 1166.3173362026064 1166.3173362026064 0 0 0 2999.578 2064.6174 " stroke="blue" fill="none" />
<path d="M 1514.5239 1805.8708 A 1033.4482624774841 1033.4482624774841 0 0 0 2976.0405 1805.8708 " stroke="blue" fill="none" />
<path d="M 1331.866 1522.6749 A 1181.1023622047244 1181.1023622047244 0 0 0 3002.197 1522.6749 " stroke="blue" fill="none" />
<path d="M 1514.5239 1547.056 A 1033.4482624774841 1033.4482624774841 0 0 0 2976.0405 1547.056 " stroke="blue" fill="none" />
<path d="M 1185.7882 2071.3948 A 1299.1863676882167 1299.1863676882167 0 0 0 3023.1152 2071.3948 " stroke="blue" fill="none" />
<path d="M 1350.1561 1476.189 A 1166.3173362026064 1166.3173362026064 0 0 0 2999.578 1476.189 " stroke="blue" fill="none" />
<path d="M 1952.8386 1367.8494 A 679.1305495059396 679.1305495059396 0 0 0 2913.2744 1367.8494 " stroke="blue" fill="none" />
<path d="M 1477.9976 1559.3043 A 1062.9746388262652 1062.9746388262652 0 0 0 2981.2708 1559.3043 " stroke="blue" fill="none" />
<path d="M 1587.5762 1830.8552 A 974.395284502525 974.395284502525 0 0 0 2965.579 1830.8552 " stroke="blue" fill="none" />
<path d="M 1898.0492 1544.4324 A 723.4202337077284 723.4202337077284 0 0 0 2921.1199 1544.4324 " stroke="blue" fill="none" />
<path d="M 1697.1548 1485.8142 A 885.8159020191102 885.8159020191102 0 0 0 2949.8877 1485.8142 " stroke="blue" fill="none" />
<path d="M 1331.8655 2039.0377 A 1181.1023622047244 1181.1023622047244 0 0 0 3002.1965 2039.0377 " stroke="blue" fill="none" />
<path d="M 1697.1548 1658.3575 A 885.8159020191102 885.8159020191102 0 0 0 2949.8877 1658.3575 " stroke="blue" fill="none" />
<path d="M 1185.7882 1740.1118 A 1299.1863676882167 1299.1863676882167 0 0 0 3023.1152 1740.1118 " stroke="blue" fill="none" />
<path d="M 1788.4702 1381.0492 A 812.0000808257756 812.0000808257756 0 0 0 2936.8118 1381.0492 " stroke="blue" fill="none" />
<path d="M 1660.6284 1417.5754 A 915.3425318049633 915.3425318049633 0 0 0 2955.1182 1417.5754 " stroke="blue" fill="none" />
<path d="M 1477.9976 1780.1597 A 1062.9746388262652 1062.9746388262652 0 0 0 2981.2708 1780.1597 " stroke="blue" fill="none" />
<path d="M 1879.7858 1560.2738 A 738.1837809179711 738.1837809179711 0 0 0 2923.7354 1560.2738 " stroke="blue" fill="none" />
<path d="M 1459.7344 1970.856 A 1077.7382071562638 1077.7382071562638 0 0 0 2983.8865 1970.856 " stroke="blue" fill="none" />
<path d="M 1733.6815 1597.7969 A 856.2892863130944 856.2892863130944 0 0 0 2944.6575 1597.7969 " stroke="blue" fill="none" />
<path d="M 1331.866 1625.9473 A 1181.1023622047244 1181.1023622047244 0 0 0 3002.197 1625.9473 " stroke="blue" fill="none" />
<path d="M 1733.6815 1504.6237 A 856.2892863130944 856.2892863130944 0 0 0 2944.6575 1504.6237 " stroke="blue" fill="none" />
<path d="M 1185.7882 1905.7533 A 1299.1863676882167 1299.1863676882167 0 0 0 3023.1152 1905.7533 " stroke="blue" fill="none" />
<path d="M 1569.3136 1418.3439 A 989.1583600382166 989.1583600382166 0 0 0 2968.1948 1418.3439 " stroke="blue" fill="none" />
<path d="M 1806.7335 1385.862 A 797.2365336155328 797.2365336155328 0 0 0 2934.1963 1385.862 " stroke="blue" fill="none" />
<path d="M 1477.9976 1669.7319 A 1062.9746388262652 1062.9746388262652 0 0 0 2981.2708 1669.7319 " stroke="blue" fill="none" />
<path d="M 1733.6813 1702.4144 A 856.2893003929319 856.2893003929319 0 0 0 2944.6572 1702.4144 " stroke="blue" fill="none" />
<path d="M 1678.8918 1767.9194 A 900.5792098721181 900.5792098721181 0 0 0 2952.5032 1767.9194 " stroke="blue" fill="none" />
<path d="M 1989.365 1401.6309 A 649.6039373198832 649.6039373198832 0 0 0 2908.0437 1401.6309 " stroke="blue" fill="none" />
<path d="M 1331.8655 1832.4927 A 1181.1023622047244 1181.1023622047244 0 0 0 3002.1965 1832.4927 " stroke="blue" fill="none" />
<path d="M 1989.365 1408.5325 A 649.6039373198832 649.6039373198832 0 0 0 2908.0437 1408.5325 " stroke="blue" fill="none" />
<path d="M 1185.7882 1574.4697 A 1299.1863676882167 1299.1863676882167 0 0 0 3023.1152 1574.4697 " stroke="blue" fill="none" />
<path d="M 2007.6277 1364.3057 A 634.8411020214163 634.8411020214163 0 0 0 2905.4285 1364.3057 " stroke="blue" fill="none" />
<path d="M 1514.5233 1462.9893 A 1033.4485159145565 1033.4485159145565 0 0 0 2976.0403 1462.9893 " stroke="blue" fill="none" />
<path d="M 1477.9976 1890.5876 A 1062.9746388262652 1062.9746388262652 0 0 0 2981.2708 1890.5876 " stroke="blue" fill="none" />
<path d="M 2025.8909 1404.4321 A 620.0777950483982 620.0777950483982 0 0 0 2902.8132 1404.4321 " stroke="blue" fill="none" />
<path d="M 1240.5769 2153.2417 A 1254.8971833206538 1254.8971833206538 0 0 0 3015.2695 2153.2417 " stroke="blue" fill="none" />
<path d="M 1295.3665 2055.3552 A 1210.6072386418741 1210.6072386418741 0 0 0 3007.4236 2055.3552 " stroke="blue" fill="none" />
<path d="M 1331.866 1419.4022 A 1181.1023622047244 1181.1023622047244 0 0 0 3002.197 1419.4022 " stroke="blue" fill="none" />
<path d="M 1295.3665 1548.0775 A 1210.6072386418741 1210.6072386418741 0 0 0 3007.4236 1548.0775 " stroke="blue" fill="none" />
<path d="M 2034.7545 1388.0034 A 629.6721262138659 629.6721262138659 0 0 0 2925.2454 1388.0034 " stroke="blue" fill="none" />
<path d="M 2024.3883 1388.0034 A 629.6721262138659 629.6721262138659 0 0 0 2914.8792 1388.0034 " stroke="blue" fill="none" />
<path d="M 2045.1208 1388.0034 A 629.6721262138659 629.6721262138659 0 0 0 2935.6118 1388.0034 " stroke="blue" fill="none" />
<path d="M 2043.9755 1379.7792 A 616.6318111766981 616.6318111766981 0 0 0 2916.0244 1379.7792 " stroke="blue" fill="none" />
<path d="M 2037.0646 1379.7792 A 616.6318111766981 616.6318111766981 0 0 0 2909.1138 1379.7792 " stroke="blue" fill="none" />
<path d="M 2050.8862 1379.7792 A 616.6318111766981 616.6318111766981 0 0 0 2922.9353 1379.7792 " stroke="blue" fill="none" />
<path d="M 2025.5337 1400.2175 A 642.7124412510339 642.7124412510339 0 0 0 2934.4663 1400.2175 " stroke="blue" fill="none" />
<path d="M 2011.712 1400.2175 A 642.7124412510339 642.7124412510339 0 0 0 2920.6445 1400.2175 " stroke="blue" fill="none" />
<path d="M 2039.3553 1400.2175 A 642.7124412510339 642.7124412510339 0 0 0 2948.288 1400.2175 " stroke="blue" fill="none" />
<path d="M 2007.0919 1418.661 A 668.7930713253697 668.7930713253697 0 0 0 2952.9082 1418.661 " stroke="blue" fill="none" />
<path d="M 2027.8245 1418.661 A 668.7930713253697 668.7930713253697 0 0 0 2973.6406 1418.661 " stroke="blue" fill="none" />
<path d="M 1986.3594 1418.661 A 668.7930713253697 668.7930713253697 0 0 0 2932.1755 1418.661 " stroke="blue" fill="none" />
<path d="M 2043.9755 1383.7692 A 616.6318111766981 616.6318111766981 0 0 0 2916.0244 1383.7692 " stroke="blue" fill="none" />
<path d="M 2037.0646 1383.7692 A 616.6318111766981 616.6318111766981 0 0 0 2909.1138 1383.7692 " stroke="blue" fill="none" />
<path d="M 2050.8862 1383.7692 A 616.6318111766981 616.6318111766981 0 0 0 2922.9353 1383.7692 " stroke="blue" fill="none" />
<path d="M 2034.7545 1393.9883 A 629.6721262138659 629.6721262138659 0 0 0 2925.2454 1393.9883 " stroke="blue" fill="none" />
<path d="M 2024.3883 1393.9883 A 629.6721262138659 629.6721262138659 0 0 0 2914.8792 1393.9883 " stroke="blue" fill="none" />
<path d="M 2045.1208 1393.9883 A 629.6721262138659 629.6721262138659 0 0 0 2935.6118 1393.9883 " stroke="blue" fill="none" />
<path d="M 1936.8854 1862.7987 A 1299.1863676882167 1299.1863676882167 0 0 0 3774.2124 1862.7987 " stroke="blue" fill="none" />
<path d="M 1999.6512 1406.3215 A 944.8691334311418 944.8691334311418 0 0 0 3335.898 1406.3215 " stroke="blue" fill="none" />
<path d="M 2020.5732 1391.9913 A 826.7631493215486 826.7631493215486 0 0 0 3189.793 1391.9913 " stroke="blue" fill="none" />
<path d="M 1978.729 1696.3093 A 1062.9746388262652 1062.9746388262652 0 0 0 3482.0022 1696.3093 " stroke="blue" fill="none" />
<path d="M 2020.5731 1668.164 A 826.7631493215486 826.7631493215486 0 0 0 3189.7927 1668.164 " stroke="blue" fill="none" />
<path d="M 1999.6512 1820.5804 A 944.8691334311418 944.8691334311418 0 0 0 3335.898 1820.5804 " stroke="blue" fill="none" />
<path d="M 1957.8035 1779.5695 A 1181.1023622047244 1181.1023622047244 0 0 0 3628.1345 1779.5695 " stroke="blue" fill="none" />
<path d="M 1957.8035 1779.5695 A 1181.1023622047244 1181.1023622047244 0 0 0 3628.1345 1779.5695 " stroke="blue" fill="none" />
<path d="M 1957.8035 1780.8563 A 1181.1023622047244 1181.1023622047244 0 0 0 3628.1345 1780.8563 " stroke="blue" fill="none" />
<path d="M 1936.8854 2029.2123 A 1299.1863676882167 1299.1863676882167 0 0 0 3774.2124 2029.2123 " stroke="blue" fill="none" />
<path d="M 1968.2683 1458.064 A 1122.0281095955315 1122.0281095955315 0 0 0 3555.0557 1458.064 " stroke="blue" fill="none" />
<path d="M 2041.4952 1370.9395 A 708.6571652119554 708.6571652119554 0 0 0 3043.6877 1370.9395 " stroke="blue" fill="none" />
<path d="M 1978.729 1585.367 A 1062.9746388262652 1062.9746388262652 0 0 0 3482.0022 1585.367 " stroke="blue" fill="none" />
<path d="M 1999.651 1800.0298 A 944.8691334311418 944.8691334311418 0 0 0 3335.8977 1800.0298 " stroke="blue" fill="none" />
<path d="M 2031.0343 1602.231 A 767.7101572667519 767.7101572667519 0 0 0 3116.7405 1602.231 " stroke="blue" fill="none" />
<path d="M 1999.6512 1529.858 A 944.8691334311418 944.8691334311418 0 0 0 3335.898 1529.858 " stroke="blue" fill="none" />
<path d="M 2020.5731 1474.349 A 826.7631493215486 826.7631493215486 0 0 0 3189.7927 1474.349 " stroke="blue" fill="none" />
<path d="M 1957.8035 1987.4014 A 1181.1023622047244 1181.1023622047244 0 0 0 3628.1345 1987.4014 " stroke="blue" fill="none" />
<path d="M 1936.8854 1696.385 A 1299.1863676882167 1299.1863676882167 0 0 0 3774.2124 1696.385 " stroke="blue" fill="none" />
<path d="M 2031.0343 1374.7437 A 767.7101572667519 767.7101572667519 0 0 0 3116.7405 1374.7437 " stroke="blue" fill="none" />
<path d="M 1999.651 1426.4866 A 944.8691334311418 944.8691334311418 0 0 0 3335.8977 1426.4866 " stroke="blue" fill="none" />
<path d="M 1978.729 1807.2522 A 1062.9746388262652 1062.9746388262652 0 0 0 3482.0022 1807.2522 " stroke="blue" fill="none" />
<path d="M 2041.4951 1522.5977 A 708.6571652119554 708.6571652119554 0 0 0 3043.6877 1522.5977 " stroke="blue" fill="none" />
<path d="M 1968.2683 2018.3793 A 1122.0281095955315 1122.0281095955315 0 0 0 3555.0557 2018.3793 " stroke="blue" fill="none" />
<path d="M 2020.5731 1585.2915 A 826.7631493215486 826.7631493215486 0 0 0 3189.7927 1585.2915 " stroke="blue" fill="none" />
<path d="M 1999.6512 1696.2719 A 944.8691334311418 944.8691334311418 0 0 0 3335.898 1696.2719 " stroke="blue" fill="none" />
<path d="M 1957.8035 1574.3113 A 1181.1023622047244 1181.1023622047244 0 0 0 3628.1345 1574.3113 " stroke="blue" fill="none" />
<path d="M 1936.8854 2112.4192 A 1299.1863676882167 1299.1863676882167 0 0 0 3774.2124 2112.4192 " stroke="blue" fill="none" />
<path d="M 1952.5768 1491.4971 A 1210.6072386418741 1210.6072386418741 0 0 0 3664.634 1491.4971 " stroke="blue" fill="none" />
<path d="M 2051.9563 1365.4547 A 649.6039373198832 649.6039373198832 0 0 0 2970.635 1365.4547 " stroke="blue" fill="none" />
<path d="M 1978.729 1529.8958 A 1062.9746388262652 1062.9746388262652 0 0 0 3482.0022 1529.8958 " stroke="blue" fill="none" />
<path d="M 1989.19 1860.8246 A 1003.9218861287035 1003.9218861287035 0 0 0 3408.95 1860.8246 " stroke="blue" fill="none" />
<path d="M 2046.7257 1485.3492 A 679.1303154286437 679.1303154286437 0 0 0 3007.1611 1485.3492 " stroke="blue" fill="none" />
<path d="M 1968.2683 1550.7166 A 1122.0281095955315 1122.0281095955315 0 0 0 3555.0557 1550.7166 " stroke="blue" fill="none" />
<path d="M 1999.651 1488.2546 A 944.8691334311418 944.8691334311418 0 0 0 3335.8977 1488.2546 " stroke="blue" fill="none" />
<path d="M 1957.803 2090.6736 A 1181.1023622047244 1181.1023622047244 0 0 0 3628.134 2090.6736 " stroke="blue" fill="none" />
<path d="M 1936.8854 1779.5918 A 1299.1863676882167 1299.1863676882167 0 0 0 3774.2124 1779.5918 " stroke="blue" fill="none" />
<path d="M 2015.3428 1388.012 A 856.2892863130944 856.2892863130944 0 0 0 3226.3188 1388.012 " stroke="blue" fill="none" />
<path d="M 2010.112 1407.5585 A 885.8159020191102 885.8159020191102 0 0 0 3262.845 1407.5585 " stroke="blue" fill="none" />
<path d="M 1978.729 1751.7806 A 1062.9746388262652 1062.9746388262652 0 0 0 3482.0022 1751.7806 " stroke="blue" fill="none" />
<path d="M 2031.0342 1597.0931 A 767.709917909517 767.709917909517 0 0 0 3116.74 1597.0931 " stroke="blue" fill="none" />
<path d="M 1983.9598 1922.0485 A 1033.4482624774841 1033.4482624774841 0 0 0 3445.4763 1922.0485 " stroke="blue" fill="none" />
<path d="M 2041.4951 1460.4434 A 708.6571652119554 708.6571652119554 0 0 0 3043.6877 1460.4434 " stroke="blue" fill="none" />
<path d="M 2031.0343 1508.9996 A 767.7101572667519 767.7101572667519 0 0 0 3116.7405 1508.9996 " stroke="blue" fill="none" />
<path d="M 1957.8035 1677.5836 A 1181.1023622047244 1181.1023622047244 0 0 0 3628.1345 1677.5836 " stroke="blue" fill="none" />
<path d="M 1936.8854 1946.0055 A 1299.1863676882167 1299.1863676882167 0 0 0 3774.2124 1946.0055 " stroke="blue" fill="none" />
<path d="M 1983.9598 1429.6724 A 1033.4482624774841 1033.4482624774841 0 0 0 3445.4763 1429.6724 " stroke="blue" fill="none" />
<path d="M 2031.0343 1379.7849 A 767.709917909517 767.709917909517 0 0 0 3116.74 1379.7849 " stroke="blue" fill="none" />
<path d="M 1978.729 1640.8381 A 1062.9746388262652 1062.9746388262652 0 0 0 3482.0022 1640.8381 " stroke="blue" fill="none" />
<path d="M 2010.112 1735.8092 A 885.8159020191102 885.8159020191102 0 0 0 3262.845 1735.8092 " stroke="blue" fill="none" />
<path d="M 2015.3428 1713.9742 A 856.2892863130944 856.2892863130944 0 0 0 3226.3188 1713.9742 " stroke="blue" fill="none" />
<path d="M 2031.0343 1467.3961 A 767.7101572667519 767.7101572667519 0 0 0 3116.7405 1467.3961 " stroke="blue" fill="none" />
<path d="M 2041.4952 1432.7076 A 708.6571652119554 708.6571652119554 0 0 0 3043.6877 1432.7076 " stroke="blue" fill="none" />
<path d="M 1957.8035 1884.1287 A 1181.1023622047244 1181.1023622047244 0 0 0 3628.1345 1884.1287 " stroke="blue" fill="none" />
<path d="M 1936.8854 1613.1782 A 1299.1863676882167 1299.1863676882167 0 0 0 3774.2124 1613.1782 " stroke="blue" fill="none" />
<path d="M 2046.7258 1366.5167 A 679.1303154286437 679.1303154286437 0 0 0 3007.1611 1366.5167 " stroke="blue" fill="none" />
<path d="M 1989.19 1448.775 A 1003.9218861287035 1003.9218861287035 0 0 0 3408.95 1448.775 " stroke="blue" fill="none" />
<path d="M 1978.729 1862.7234 A 1062.9746388262652 1062.9746388262652 0 0 0 3482.0022 1862.7234 " stroke="blue" fill="none" />
<path d="M 2051.956 1444.6771 A 649.6044089944344 649.6044089944344 0 0 0 2970.6355 1444.6771 " stroke="blue" fill="none" />
<path d="M 1952.5768 2109.5715 A 1210.6072386418741 1210.6072386418741 0 0 0 3664.634 2109.5715 " stroke="blue" fill="none" />
<path d="M 1999.651 1737.8756 A 944.8691334311418 944.8691334311418 0 0 0 3335.8977 1737.8756 " stroke="blue" fill="none" />
<path d="M 1968.2683 1925.1476 A 1122.0281095955315 1122.0281095955315 0 0 0 3555.0557 1925.1476 " stroke="blue" fill="none" />
<path d="M 1957.8035 1471.0386 A 1181.1023622047244 1181.1023622047244 0 0 0 3628.1345 1471.0386 " stroke="blue" fill="none" />
<path d="M 1936.8854 2154.0227 A 1299.1863676882167 1299.1863676882167 0 0 0 3774.2124 2154.0227 " stroke="blue" fill="none" />
<path d="M 1944.7311 1510.1042 A 1254.8971833206538 1254.8971833206538 0 0 0 3719.4236 1510.1042 " stroke="blue" fill="none" />
<path d="M 2057.1868 1363.9727 A 620.0777950483982 620.0777950483982 0 0 0 2934.1091 1363.9727 " stroke="blue" fill="none" />
<path d="M 1978.729 1502.1604 A 1062.9746388262652 1062.9746388262652 0 0 0 3482.0022 1502.1604 " stroke="blue" fill="none" />
<path d="M 1983.9595 1889.938 A 1033.4485159145565 1033.4485159145565 0 0 0 3445.4763 1889.938 " stroke="blue" fill="none" />
<path d="M 2054.5715 1424.9828 A 634.8411020214163 634.8411020214163 0 0 0 2952.3723 1424.9828 " stroke="blue" fill="none" />
<path d="M 1952.5768 1545.5447 A 1210.6072386418741 1210.6072386418741 0 0 0 3664.634 1545.5447 " stroke="blue" fill="none" />
<path d="M 1989.19 1484.8066 A 1003.9218861287035 1003.9218861287035 0 0 0 3408.95 1484.8066 " stroke="blue" fill="none" />
<path d="M 1957.803 2142.31 A 1181.1023622047244 1181.1023622047244 0 0 0 3628.134 2142.31 " stroke="blue" fill="none" />
<path d="M 1936.8854 1821.1956 A 1299.1863676882167 1299.1863676882167 0 0 0 3774.2124 1821.1956 " stroke="blue" fill="none" />
<path d="M 2007.4971 1396.5366 A 900.5792098721181 900.5792098721181 0 0 0 3281.1084 1396.5366 " stroke="blue" fill="none" />
<path d="M 2015.3428 1399.3547 A 856.2893003929319 856.2893003929319 0 0 0 3226.3188 1399.3547 " stroke="blue" fill="none" />
<path d="M 1978.729 1724.0452 A 1062.9746388262652 1062.9746388262652 0 0 0 3482.0022 1724.0452 " stroke="blue" fill="none" />
<path d="M 2025.8036 1633.0565 A 797.2365336155328 797.2365336155328 0 0 0 3153.2664 1633.0565 " stroke="blue" fill="none" />
<path d="M 1991.8057 1871.9563 A 989.1583600382166 989.1583600382166 0 0 0 3390.6868 1871.9563 " stroke="blue" fill="none" />
<path d="M 2051.9563 1408.4199 A 649.6039373198832 649.6039373198832 0 0 0 2970.635 1408.4199 " stroke="blue" fill="none" />
<path d="M 2046.7258 1430.9645 A 679.1303154286437 679.1303154286437 0 0 0 3007.1611 1430.9645 " stroke="blue" fill="none" />
<path d="M 1957.8035 1729.22 A 1181.1023622047244 1181.1023622047244 0 0 0 3628.1345 1729.22 " stroke="blue" fill="none" />
<path d="M 1936.8854 1987.6091 A 1299.1863676882167 1299.1863676882167 0 0 0 3774.2124 1987.6091 " stroke="blue" fill="none" />
<path d="M 1976.114 1443.2382 A 1077.7382071562638 1077.7382071562638 0 0 0 3500.266 1443.2382 " stroke="blue" fill="none" />
<path d="M 2036.2648 1374.9421 A 738.1837809179711 738.1837809179711 0 0 0 3080.2144 1374.9421 " stroke="blue" fill="none" />
<path d="M 1978.729 1613.1028 A 1062.9746388262652 1062.9746388262652 0 0 0 3482.0022 1613.1028 " stroke="blue" fill="none" />
<path d="M 2004.8815 1768.3475 A 915.3425318049633 915.3425318049633 0 0 0 3299.3713 1768.3475 " stroke="blue" fill="none" />
<path d="M 2023.1886 1658.7444 A 811.9993627540708 811.9993627540708 0 0 0 3171.529 1658.7444 " stroke="blue" fill="none" />
<path d="M 2015.3428 1503.8275 A 856.2892863130944 856.2892863130944 0 0 0 3226.3188 1503.8275 " stroke="blue" fill="none" />
<path d="M 2031.0342 1456.9952 A 767.709917909517 767.709917909517 0 0 0 3116.74 1456.9952 " stroke="blue" fill="none" />
<path d="M 1957.8035 1935.765 A 1181.1023622047244 1181.1023622047244 0 0 0 3628.1345 1935.765 " stroke="blue" fill="none" />
<path d="M 1936.8854 1654.782 A 1299.1863676882167 1299.1863676882167 0 0 0 3774.2124 1654.782 " stroke="blue" fill="none" />
<path d="M 2038.88 1370.0 A 723.4202337077284 723.4202337077284 0 0 0 3061.9507 1370.0 " stroke="blue" fill="none" />
<path d="M 1994.4205 1437.2104 A 974.395284502525 974.395284502525 0 0 0 3372.4236 1437.2104 " stroke="blue" fill="none" />
<path d="M 1978.729 1834.9875 A 1062.9746388262652 1062.9746388262652 0 0 0 3482.0022 1834.9875 " stroke="blue" fill="none" />
<path d="M 2046.7257 1484.0652 A 679.1305495059396 679.1305495059396 0 0 0 3007.1614 1484.0652 " stroke="blue" fill="none" />
<path d="M 1960.4226 2064.6174 A 1166.3173362026064 1166.3173362026064 0 0 0 3609.8445 2064.6174 " stroke="blue" fill="none" />
<path d="M 2010.112 1658.1163 A 885.8159020191102 885.8159020191102 0 0 0 3262.845 1658.1163 " stroke="blue" fill="none" />
<path d="M 1983.9598 1805.5092 A 1033.4482624774841 1033.4482624774841 0 0 0 3445.4763 1805.5092 " stroke="blue" fill="none" />
<path d="M 1957.8035 1522.6749 A 1181.1023622047244 1181.1023622047244 0 0 0 3628.1345 1522.6749 " stroke="blue" fill="none" />
<path d="M 1936.8854 2070.816 A 1299.1863676882167 1299.1863676882167 0 0 0 3774.2124 2070.816 " stroke="blue" fill="none" />
<path d="M 1960.4226 1474.1503 A 1166.3173362026064 1166.3173362026064 0 0 0 3609.8445 1474.1503 " stroke="blue" fill="none" />
<path d="M 2046.7258 1367.777 A 679.1305495059396 679.1305495059396 0 0 0 3007.1614 1367.777 " stroke="blue" fill="none" />
<path d="M 1978.729 1557.6316 A 1062.9746388262652 1062.9746388262652 0 0 0 3482.0022 1557.6316 " stroke="blue" fill="none" />
<path d="M 1994.4205 1830.8552 A 974.395284502525 974.395284502525 0 0 0 3372.4236 1830.8552 " stroke="blue" fill="none" />
<path d="M 2038.88 1544.4324 A 723.4202337077284 723.4202337077284 0 0 0 3061.9507 1544.4324 " stroke="blue" fill="none" />
<path d="M 1983.9598 1545.4878 A 1033.4482624774841 1033.4482624774841 0 0 0 3445.4763 1545.4878 " stroke="blue" fill="none" />
<path d="M 2010.112 1484.7688 A 885.8159020191102 885.8159020191102 0 0 0 3262.845 1484.7688 " stroke="blue" fill="none" />
<path d="M 1957.8035 2039.0377 A 1181.1023622047244 1181.1023622047244 0 0 0 3628.1345 2039.0377 " stroke="blue" fill="none" />
<path d="M 1936.8854 1737.9888 A 1299.1863676882167 1299.1863676882167 0 0 0 3774.2124 1737.9888 " stroke="blue" fill="none" />
<path d="M 2023.1885 1380.7477 A 812.0000808257756 812.0000808257756 0 0 0 3171.53 1380.7477 " stroke="blue" fill="none" />
<path d="M 2004.8815 1416.6024 A 915.3425318049633 915.3425318049633 0 0 0 3299.3713 1416.6024 " stroke="blue" fill="none" />
<path d="M 1978.729 1779.5164 A 1062.9746388262652 1062.9746388262652 0 0 0 3482.0022 1779.5164 " stroke="blue" fill="none" />
<path d="M 2036.2646 1560.2738 A 738.1837809179711 738.1837809179711 0 0 0 3080.214 1560.2738 " stroke="blue" fill="none" />
<path d="M 1976.114 1970.856 A 1077.7382071562638 1077.7382071562638 0 0 0 3500.266 1970.856 " stroke="blue" fill="none" />
<path d="M 2031.0342 1519.4003 A 767.709917909517 767.709917909517 0 0 0 3116.74 1519.4003 " stroke="blue" fill="none" />
<path d="M 2015.3428 1597.435 A 856.2892863130944 856.2892863130944 0 0 0 3226.3188 1597.435 " stroke="blue" fill="none" />
<path d="M 1957.8035 1625.9473 A 1181.1023622047244 1181.1023622047244 0 0 0 3628.1345 1625.9473 " stroke="blue" fill="none" />
<path d="M 1936.8854 1904.4023 A 1299.1863676882167 1299.1863676882167 0 0 0 3774.2124 1904.4023 " stroke="blue" fill="none" />
<path d="M 1991.8057 1417.3668 A 989.1583600382166 989.1583600382166 0 0 0 3390.6868 1417.3668 " stroke="blue" fill="none" />
<path d="M 2025.8038 1385.468 A 797.2365336155328 797.2365336155328 0 0 0 3153.2666 1385.468 " stroke="blue" fill="none" />
<path d="M 1978.729 1668.574 A 1062.9746388262652 1062.9746388262652 0 0 0 3482.0022 1668.574 " stroke="blue" fill="none" />
<path d="M 2015.3427 1702.4144 A 856.2893003929319 856.2893003929319 0 0 0 3226.3186 1702.4144 " stroke="blue" fill="none" />
<path d="M 2007.4971 1767.9194 A 900.5792098721181 900.5792098721181 0 0 0 3281.1084 1767.9194 " stroke="blue" fill="none" />
<path d="M 2046.7258 1420.5637 A 679.1303154286437 679.1303154286437 0 0 0 3007.1611 1420.5637 " stroke="blue" fill="none" />
<path d="M 2051.9563 1401.4861 A 649.6039373198832 649.6039373198832 0 0 0 2970.635 1401.4861 " stroke="blue" fill="none" />
<path d="M 1957.8035 1832.4927 A 1181.1023622047244 1181.1023622047244 0 0 0 3628.1345 1832.4927 " stroke="blue" fill="none" />
<path d="M 1936.8854 1571.5751 A 1299.1863676882167 1299.1863676882167 0 0 0 3774.2124 1571.5751 " stroke="blue" fill="none" />
<path d="M 2054.5715 1364.2936 A 634.8411020214163 634.8411020214163 0 0 0 2952.3723 1364.2936 " stroke="blue" fill="none" />
<path d="M 1983.9595 1461.1797 A 1033.4485159145565 1033.4485159145565 0 0 0 3445.4763 1461.1797 " stroke="blue" fill="none" />
<path d="M 1978.729 1890.4587 A 1062.9746388262652 1062.9746388262652 0 0 0 3482.0022 1890.4587 " stroke="blue" fill="none" />
<path d="M 2057.1868 1404.4321 A 620.0777950483982 620.0777950483982 0 0 0 2934.1091 1404.4321 " stroke="blue" fill="none" />
<path d="M 1944.7311 2153.2417 A 1254.8971833206538 1254.8971833206538 0 0 0 3719.4236 2153.2417 " stroke="blue" fill="none" />
<path d="M 1989.19 1824.568 A 1003.9218861287035 1003.9218861287035 0 0 0 3408.95 1824.568 " stroke="blue" fill="none" />
<path d="M 1952.5768 2055.1865 A 1210.6072386418741 1210.6072386418741 0 0 0 3664.634 2055.1865 " stroke="blue" fill="none" />
<path d="M 1957.8035 1419.4022 A 1181.1023622047244 1181.1023622047244 0 0 0 3628.1345 1419.4022 " stroke="blue" fill="none" />
<path d="M 1700.3491 1646.8319 A 1181.1023622047244 1181.1023622047244 0 0 0 3370.6802 1646.8319 " stroke="blue" fill="none" />
<path d="M 1589.3198 1646.8319 A 1181.1023622047244 1181.1023622047244 0 0 0 3259.651 1646.8319 " stroke="blue" fill="none" />
<path d="M 1700.3491 1547.6194 A 1181.1023622047244 1181.1023622047244 0 0 0 3370.6802 1547.6194 " stroke="blue" fill="none" />
<path d="M 1589.3198 1547.6194 A 1181.1023622047244 1181.1023622047244 0 0 0 3259.651 1547.6194 " stroke="blue" fill="none" />
<path d="M 1989.8245 1407.0728 A 649.2325974496331 649.2325974496331 0 0 0 2907.978 1407.0728 " stroke="blue" fill="none" />
<path d="M 2052.022 1407.0728 A 649.2325974496331 649.2325974496331 0 0 0 2970.1755 1407.0728 " stroke="blue" fill="none" />
<path d="M 2038.1907 1418.661 A 668.7930713253697 668.7930713253697 0 0 0 2984.0068 1418.661 " stroke="blue" fill="none" />
<path d="M 2019.2052 1393.9883 A 629.6721262138659 629.6721262138659 0 0 0 2909.696 1393.9883 " stroke="blue" fill="none" />
<path d="M 1331.866 1826.1228 A 1181.1023622047244 1181.1023622047244 0 0 0 3002.197 1826.1228 " stroke="blue" fill="none" />
<path d="M 1957.8035 1826.1228 A 1181.1023622047244 1181.1023622047244 0 0 0 3628.1345 1826.1228 " stroke="blue" fill="none" />
<path d="M 2033.6091 1383.7692 A 616.6318111766981 616.6318111766981 0 0 0 2905.6582 1383.7692 " stroke="blue" fill="none" />
<path d="M 2014.0221 1392.4921 A 629.6721253338761 629.6721253338761 0 0 0 2904.513 1392.4921 " stroke="blue" fill="none" />
<path d="M 2055.487 1392.4921 A 629.6721253338761 629.6721253338761 0 0 0 2945.978 1392.4921 " stroke="blue" fill="none" />
<path d="M 2004.8011 1400.2175 A 642.7124412510339 642.7124412510339 0 0 0 2913.734 1400.2175 " stroke="blue" fill="none" />
<path d="M 2014.0221 1389.4996 A 629.6721253338761 629.6721253338761 0 0 0 2904.513 1389.4996 " stroke="blue" fill="none" />
<path d="M 2055.487 1389.4996 A 629.6721253338761 629.6721253338761 0 0 0 2945.978 1389.4996 " stroke="blue" fill="none" />
<path d="M 2033.6091 1379.7792 A 616.6318111766981 616.6318111766981 0 0 0 2905.6582 1379.7792 " stroke="blue" fill="none" />
<path d="M 1331.866 1735.7765 A 1181.1023622047244 1181.1023622047244 0 0 0 3002.197 1735.7765 " stroke="blue" fill="none" />
<path d="M 1957.8035 1735.7765 A 1181.1023622047244 1181.1023622047244 0 0 0 3628.1345 1735.7765 " stroke="blue" fill="none" />
<path d="M 2019.2052 1388.0034 A 629.6721262138659 629.6721262138659 0 0 0 2909.696 1388.0034 " stroke="blue" fill="none" />
<path d="M 1989.8245 1402.5841 A 649.2325974496331 649.2325974496331 0 0 0 2907.978 1402.5841 " stroke="blue" fill="none" />
<path d="M 2052.022 1402.5841 A 649.2325974496331 649.2325974496331 0 0 0 2970.1755 1402.5841 " stroke="blue" fill="none" />
<path d="M 2039.9377 1388.0034 A 629.6721262138659 629.6721262138659 0 0 0 2930.4285 1388.0034 " stroke="blue" fill="none" />
<path d="M 2029.5714 1388.0034 A 629.6721262138659 629.6721262138659 0 0 0 2920.0623 1388.0034 " stroke="blue" fill="none" />
<path d="M 2050.304 1388.0034 A 629.6721262138659 629.6721262138659 0 0 0 2940.795 1388.0034 " stroke="blue" fill="none" />
<path d="M 2047.4309 1379.7792 A 616.6318111766981 616.6318111766981 0 0 0 2919.48 1379.7792 " stroke="blue" fill="none" />
<path d="M 2040.52 1379.7792 A 616.6318111766981 616.6318111766981 0 0 0 2912.569 1379.7792 " stroke="blue" fill="none" />
<path d="M 2054.3418 1379.7792 A 616.6318111766981 616.6318111766981 0 0 0 2926.3909 1379.7792 " stroke="blue" fill="none" />
<path d="M 2032.4446 1400.2175 A 642.7124412510339 642.7124412510339 0 0 0 2941.3772 1400.2175 " stroke="blue" fill="none" />
<path d="M 2018.6228 1400.2175 A 642.7124412510339 642.7124412510339 0 0 0 2927.5554 1400.2175 " stroke="blue" fill="none" />
<path d="M 2046.2662 1400.2175 A 642.7124412510339 642.7124412510339 0 0 0 2955.199 1400.2175 " stroke="blue" fill="none" />
<path d="M 1996.7256 1418.661 A 668.7930713253697 668.7930713253697 0 0 0 2942.5417 1418.661 " stroke="blue" fill="none" />
<path d="M 2017.4581 1418.661 A 668.7930713253697 668.7930713253697 0 0 0 2963.2744 1418.661 " stroke="blue" fill="none" />
<path d="M 1975.993 1418.661 A 668.7930713253697 668.7930713253697 0 0 0 2921.8093 1418.661 " stroke="blue" fill="none" />
<path d="M 2047.4309 1383.7692 A 616.6318111766981 616.6318111766981 0 0 0 2919.48 1383.7692 " stroke="blue" fill="none" />
<path d="M 2040.52 1383.7692 A 616.6318111766981 616.6318111766981 0 0 0 2912.569 1383.7692 " stroke="blue" fill="none" />
<path d="M 2054.3418 1383.7692 A 616.6318111766981 616.6318111766981 0 0 0 2926.3909 1383.7692 " stroke="blue" fill="none" />
<path d="M 2039.9377 1393.9883 A 629.6721262138659 629.6721262138659 0 0 0 2930.4285 1393.9883 " stroke="blue" fill="none" />
<path d="M 2029.5714 1393.9883 A 629.6721262138659 629.6721262138659 0 0 0 2920.0623 1393.9883 " stroke="blue" fill="none" />
<path d="M 2050.304 1393.9883 A 629.6721262138659 629.6721262138659 0 0 0 2940.795 1393.9883 " stroke="blue" fill="none" />
<!-- radmm = 25 -->
<!-- dimensionCubemm = 40.0 -->
<!-- adjustFr = 1.1 -->
<!-- adjustBa = 0.9 -->
<!-- scArcfr = 1.25 -->
<!-- scArcBa = 0.25 -->
<!-- ang = 90 -->
</svg>
