<svg width="2362" height="2952" xmlns="http://www.w3.org/2000/svg">

<path d="M 1328.077 1316.0082 A 147.6556590692265 147.6556590692265 0 0 0 1033.8894 1316.0082 " stroke="blue" fill="none" style="stroke-width:1.0;"/>
<path d="M 1328.0701 1315.9913 A 147.6556590692265 147.6556590692265 0 0 0 1033.8824 1315.9913 " stroke="blue" fill="none" style="stroke-width:1.0;"/>
<path d="M 1328.077 1315.9746 A 147.6556590692265 147.6556590692265 0 0 0 1033.8894 1315.9746 " stroke="blue" fill="none" style="stroke-width:1.0;"/>
<path d="M 1328.0938 1315.9677 A 147.6556590692265 147.6556590692265 0 0 0 1033.9062 1315.9677 " stroke="blue" fill="none" style="stroke-width:1.0;"/>
<path d="M 993.20447 1047.1013 A 172.15424165950986 172.15424165950986 0 0 0 1336.2028 1047.1013 " stroke="blue" fill="none" style="stroke-width:1.0;"/>
<path d="M 966.77747 1014.7781 A 182.31657546336257 182.31657546336257 0 0 0 1330.0231 1014.7781 " stroke="blue" fill="none" style="stroke-width:1.0;"/>
<path d="M 993.2048 1001.00836 A 172.15408326133968 172.15408326133968 0 0 0 1336.2028 1001.00836 " stroke="blue" fill="none" style="stroke-width:1.0;"/>
<path d="M 999.3772 1047.3778 A 182.31657546336257 182.31657546336257 0 0 0 1362.6228 1047.3778 " stroke="blue" fill="none" style="stroke-width:1.0;"/>
<path d="M 985.06006 1001.6589 A 196.6883934388949 196.6883934388949 0 0 0 1376.94 1001.6589 " stroke="blue" fill="none" style="stroke-width:1.0;"/>
<path d="M 999.3772 982.17834 A 182.31657546336257 182.31657546336257 0 0 0 1362.6228 982.17834 " stroke="blue" fill="none" style="stroke-width:1.0;"/>
<path d="M 1025.7974 1047.1013 A 172.15424165950986 172.15424165950986 0 0 0 1368.7957 1047.1013 " stroke="blue" fill="none" style="stroke-width:1.0;"/>
<path d="M 1031.9769 1014.7781 A 182.31657546336257 182.31657546336257 0 0 0 1395.2225 1014.7781 " stroke="blue" fill="none" style="stroke-width:1.0;"/>
<path d="M 1025.7974 1001.00836 A 172.15408326133968 172.15408326133968 0 0 0 1368.7954 1001.00836 " stroke="blue" fill="none" style="stroke-width:1.0;"/>
<path d="M 1328.1106 1316.0082 A 147.6556590692265 147.6556590692265 0 0 0 1033.923 1316.0082 " stroke="blue" fill="none" style="stroke-width:1.0;"/>
<path d="M 1328.1176 1315.9913 A 147.6556590692265 147.6556590692265 0 0 0 1033.9299 1315.9913 " stroke="blue" fill="none" style="stroke-width:1.0;"/>
<path d="M 1328.1106 1315.9746 A 147.6556590692265 147.6556590692265 0 0 0 1033.923 1315.9746 " stroke="blue" fill="none" style="stroke-width:1.0;"/>
<path d="M 1368.855 1361.4675 A 172.18996924678171 172.18996924678171 0 0 0 1025.7855 1361.4675 " stroke="blue" fill="none" style="stroke-width:1.0;"/>
<path d="M 1395.2917 1347.664 A 182.35232065043112 182.35232065043112 0 0 0 1031.9749 1347.664 " stroke="blue" fill="none" style="stroke-width:1.0;"/>
<path d="M 1368.855 1315.3071 A 172.18996924678171 172.18996924678171 0 0 0 1025.7855 1315.3071 " stroke="blue" fill="none" style="stroke-width:1.0;"/>
<path d="M 1362.6584 1380.2974 A 182.35232065043112 182.35232065043112 0 0 0 999.3416 1380.2974 " stroke="blue" fill="none" style="stroke-width:1.0;"/>
<path d="M 1376.9756 1360.7832 A 196.72412102616678 196.72412102616678 0 0 0 985.0245 1360.7832 " stroke="blue" fill="none" style="stroke-width:1.0;"/>
<path d="M 1362.6584 1315.0306 A 182.35232065043112 182.35232065043112 0 0 0 999.3416 1315.0306 " stroke="blue" fill="none" style="stroke-width:1.0;"/>
<path d="M 1328.0938 1316.0151 A 147.6556590692265 147.6556590692265 0 0 0 1033.9062 1316.0151 " stroke="blue" fill="none" style="stroke-width:1.0;"/>
<path d="M 1336.2146 1361.4675 A 172.18996924678171 172.18996924678171 0 0 0 993.14514 1361.4675 " stroke="blue" fill="none" style="stroke-width:1.0;"/>
<path d="M 1330.0251 1347.664 A 182.35232065043112 182.35232065043112 0 0 0 966.70825 1347.664 " stroke="blue" fill="none" style="stroke-width:1.0;"/>
<path d="M 1336.2146 1315.3071 A 172.18996924678171 172.18996924678171 0 0 0 993.14514 1315.3071 " stroke="blue" fill="none" style="stroke-width:1.0;"/>
<path d="M 1176.5596 1312.7107 A 233.8948916262529 233.8948916262529 0 0 0 1642.5692 1312.7107 " stroke="blue" fill="none" style="stroke-width:1.0;"/>
<path d="M 1645.6315 1743.8561 A 234.73478912368535 234.73478912368535 0 0 0 1177.9484 1743.8561 " stroke="blue" fill="none" style="stroke-width:1.0;"/>
<path d="M 1798.8055 1433.831 A 276.74631340297185 276.74631340297185 0 0 0 1247.4191 1433.831 " stroke="blue" fill="none" style="stroke-width:1.0;"/>
<path d="M 1645.6312 1047.106 A 234.73478912368535 234.73478912368535 0 0 0 1177.9481 1047.106 " stroke="blue" fill="none" style="stroke-width:1.0;"/>
<path d="M 1176.5592 622.67957 A 233.8948916262529 233.8948916262529 0 0 0 1642.5688 622.67957 " stroke="blue" fill="none" style="stroke-width:1.0;"/>
<path d="M 1247.3595 928.6111 A 276.71058581570003 276.71058581570003 0 0 0 1798.6747 928.6111 " stroke="blue" fill="none" style="stroke-width:1.0;"/>
<path d="M 1331.0731 1316.7255 A 148.45984657918373 148.45984657918373 0 0 0 1035.2833 1316.7255 " stroke="blue" fill="none" style="stroke-width:1.0;"/>
<path d="M 719.4311 1312.7107 A 233.8948916262529 233.8948916262529 0 0 0 1185.4408 1312.7107 " stroke="blue" fill="none" style="stroke-width:1.0;"/>
<path d="M 1185.3817 1739.9054 A 233.93061921352475 233.93061921352475 0 0 0 719.30084 1739.9054 " stroke="blue" fill="none" style="stroke-width:1.0;"/>
<path d="M 1114.5814 1433.831 A 276.74631340297185 276.74631340297185 0 0 0 563.19507 1433.831 " stroke="blue" fill="none" style="stroke-width:1.0;"/>
<path d="M 1185.3813 1049.5885 A 233.93061921352475 233.93061921352475 0 0 0 719.3005 1049.5885 " stroke="blue" fill="none" style="stroke-width:1.0;"/>
<path d="M 719.4308 622.67957 A 233.8948916262529 233.8948916262529 0 0 0 1185.4404 622.67957 " stroke="blue" fill="none" style="stroke-width:1.0;"/>
<path d="M 563.32477 928.6111 A 276.71058581570003 276.71058581570003 0 0 0 1114.64 928.6111 " stroke="blue" fill="none" style="stroke-width:1.0;"/>
<path d="M 1328.0465 1315.9913 A 147.6556590692265 147.6556590692265 0 0 0 1033.8589 1315.9913 " stroke="blue" fill="none" style="stroke-width:1.0;"/>
<path d="M 1328.0465 1316.0627 A 147.6556590692265 147.6556590692265 0 0 0 1033.8589 1316.0627 " stroke="blue" fill="none" style="stroke-width:1.0;"/>
<path d="M 1149.9814 1629.6827 A 255.33853670743505 255.33853670743505 0 0 0 641.2477 1629.6827 " stroke="blue" fill="none" style="stroke-width:1.0;"/>
<path d="M 1149.9813 1198.8955 A 255.3383783092649 255.3383783092649 0 0 0 641.2478 1198.8955 " stroke="blue" fill="none" style="stroke-width:1.0;"/>
<path d="M 1328.0465 1315.9199 A 147.6556590692265 147.6556590692265 0 0 0 1033.8589 1315.9199 " stroke="blue" fill="none" style="stroke-width:1.0;"/>
<path d="M 641.37805 732.8312 A 255.30265072199302 255.30265072199302 0 0 0 1150.0403 732.8312 " stroke="blue" fill="none" style="stroke-width:1.0;"/>
<path d="M 641.3785 1163.4751 A 255.30265072199302 255.30265072199302 0 0 0 1150.0408 1163.4751 " stroke="blue" fill="none" style="stroke-width:1.0;"/>
<path d="M 876.7102 920.83704 A 190.75733235501866 190.75733235501866 0 0 0 1256.7731 920.83704 " stroke="blue" fill="none" style="stroke-width:1.0;"/>
<path d="M 1256.7142 1441.6765 A 190.79305994229054 190.79305994229054 0 0 0 876.58014 1441.6765 " stroke="blue" fill="none" style="stroke-width:1.0;"/>
<path d="M 1256.714 1269.0616 A 190.79305994229054 190.79305994229054 0 0 0 876.57996 1269.0616 " stroke="blue" fill="none" style="stroke-width:1.0;"/>
<path d="M 876.7104 1093.309 A 190.75733235501866 190.75733235501866 0 0 0 1256.7733 1093.309 " stroke="blue" fill="none" style="stroke-width:1.0;"/>
<path d="M 798.657 987.5309 A 212.16524984892897 212.16524984892897 0 0 0 1221.3728 987.5309 " stroke="blue" fill="none" style="stroke-width:1.0;"/>
<path d="M 1221.314 1374.9111 A 212.20099503599752 212.20099503599752 0 0 0 798.527 1374.9111 " stroke="blue" fill="none" style="stroke-width:1.0;"/>
<path d="M 1328.0465 1315.9913 A 147.6556590692265 147.6556590692265 0 0 0 1033.8589 1315.9913 " stroke="blue" fill="none" style="stroke-width:1.0;"/>
<path d="M 1328.0465 1315.9913 A 147.6556590692265 147.6556590692265 0 0 0 1033.8589 1315.9913 " stroke="blue" fill="none" style="stroke-width:1.0;"/>
<path d="M 1328.0465 1315.9913 A 147.6556590692265 147.6556590692265 0 0 0 1033.8589 1315.9913 " stroke="blue" fill="none" style="stroke-width:1.0;"/>
<path d="M 876.7104 1179.5448 A 190.75733235501866 190.75733235501866 0 0 0 1256.7733 1179.5448 " stroke="blue" fill="none" style="stroke-width:1.0;"/>
<path d="M 1167.6818 1695.4976 A 244.63449876139484 244.63449876139484 0 0 0 680.27454 1695.4976 " stroke="blue" fill="none" style="stroke-width:1.0;"/>
<path d="M 1132.2815 1305.6597 A 266.0424338551018 266.0424338551018 0 0 0 602.2214 1305.6597 " stroke="blue" fill="none" style="stroke-width:1.0;"/>
<path d="M 1256.714 1182.7544 A 190.79305994229054 190.79305994229054 0 0 0 876.57996 1182.7544 " stroke="blue" fill="none" style="stroke-width:1.0;"/>
<path d="M 680.4044 667.0517 A 244.59877117412296 244.59877117412296 0 0 0 1167.7404 667.0517 " stroke="blue" fill="none" style="stroke-width:1.0;"/>
<path d="M 602.3517 1056.7467 A 266.00654786965976 266.00654786965976 0 0 0 1132.3403 1056.7467 " stroke="blue" fill="none" style="stroke-width:1.0;"/>
<path d="M 798.0708 793.3264 A 212.32602399165236 212.32602399165236 0 0 0 1221.1069 793.3264 " stroke="blue" fill="none" style="stroke-width:1.0;"/>
<path d="M 1292.3804 1357.266 A 169.22436830565684 169.22436830565684 0 0 0 955.2195 1357.266 " stroke="blue" fill="none" style="stroke-width:1.0;"/>
<path d="M 1221.0479 1180.8931 A 212.3617515789242 212.3617515789242 0 0 0 797.9405 1180.8931 " stroke="blue" fill="none" style="stroke-width:1.0;"/>
<path d="M 955.3498 1048.3119 A 169.188640718385 169.188640718385 0 0 0 1292.4395 1048.3119 " stroke="blue" fill="none" style="stroke-width:1.0;"/>
<path d="M 916.3233 1016.99084 A 179.89252026625505 179.89252026625505 0 0 0 1274.7393 1016.99084 " stroke="blue" fill="none" style="stroke-width:1.0;"/>
<path d="M 1274.68 1345.4513 A 179.9283886519004 179.9283886519004 0 0 0 916.1926 1345.4513 " stroke="blue" fill="none" style="stroke-width:1.0;"/>
<path d="M 1256.714 1269.0616 A 190.79305994229054 190.79305994229054 0 0 0 876.57996 1269.0616 " stroke="blue" fill="none" style="stroke-width:1.0;"/>
<path d="M 798.657 987.5309 A 212.16524984892897 212.16524984892897 0 0 0 1221.3728 987.5309 " stroke="blue" fill="none" style="stroke-width:1.0;"/>
<path d="M 876.7102 920.83704 A 190.75733235501866 190.75733235501866 0 0 0 1256.7731 920.83704 " stroke="blue" fill="none" style="stroke-width:1.0;"/>
<path d="M 1256.7142 1527.9838 A 190.79305994229054 190.79305994229054 0 0 0 876.58014 1527.9838 " stroke="blue" fill="none" style="stroke-width:1.0;"/>
<path d="M 1132.2815 1542.4604 A 266.0424338551018 266.0424338551018 0 0 0 602.2214 1542.4604 " stroke="blue" fill="none" style="stroke-width:1.0;"/>
<path d="M 1167.6813 1113.5383 A 244.63449876139484 244.63449876139484 0 0 0 680.2742 1113.5383 " stroke="blue" fill="none" style="stroke-width:1.0;"/>
<path d="M 876.7102 834.60126 A 190.75733235501866 190.75733235501866 0 0 0 1256.7731 834.60126 " stroke="blue" fill="none" style="stroke-width:1.0;"/>
<path d="M 602.3517 820.0177 A 266.00654786965976 266.00654786965976 0 0 0 1132.3403 820.0177 " stroke="blue" fill="none" style="stroke-width:1.0;"/>
<path d="M 680.4048 1248.7966 A 244.59877117412296 244.59877117412296 0 0 0 1167.7408 1248.7966 " stroke="blue" fill="none" style="stroke-width:1.0;"/>
<path d="M 955.3497 1005.2118 A 169.188640718385 169.188640718385 0 0 0 1292.4393 1005.2118 " stroke="blue" fill="none" style="stroke-width:1.0;"/>
<path d="M 1221.0479 1569.2234 A 212.3619099770944 212.3619099770944 0 0 0 797.94025 1569.2234 " stroke="blue" fill="none" style="stroke-width:1.0;"/>
<path d="M 1292.3802 1314.0945 A 169.22436830565684 169.22436830565684 0 0 0 955.2194 1314.0945 " stroke="blue" fill="none" style="stroke-width:1.0;"/>
<path d="M 798.07104 1181.4419 A 212.32602399165236 212.32602399165236 0 0 0 1221.1072 1181.4419 " stroke="blue" fill="none" style="stroke-width:1.0;"/>
<path d="M 680.99115 958.07104 A 244.4378386332294 244.4378386332294 0 0 0 1168.0065 958.07104 " stroke="blue" fill="none" style="stroke-width:1.0;"/>
<path d="M 1167.9476 1404.3712 A 244.47372461867144 244.47372461867144 0 0 0 680.8607 1404.3712 " stroke="blue" fill="none" style="stroke-width:1.0;"/>
<path d="M 876.7104 1093.309 A 190.75733235501866 190.75733235501866 0 0 0 1256.7733 1093.309 " stroke="blue" fill="none" style="stroke-width:1.0;"/>
<path d="M 1221.314 1374.9111 A 212.20099503599752 212.20099503599752 0 0 0 798.527 1374.9111 " stroke="blue" fill="none" style="stroke-width:1.0;"/>
<path d="M 1256.7142 1441.6765 A 190.79305994229054 190.79305994229054 0 0 0 876.58014 1441.6765 " stroke="blue" fill="none" style="stroke-width:1.0;"/>
<path d="M 1239.0138 1311.2828 A 201.49709788833079 201.49709788833079 0 0 0 837.55304 1311.2828 " stroke="blue" fill="none" style="stroke-width:1.0;"/>
<path d="M 1203.3475 1233.9785 A 223.06580712476114 223.06580712476114 0 0 0 758.9136 1233.9785 " stroke="blue" fill="none" style="stroke-width:1.0;"/>
<path d="M 1185.6478 1308.4712 A 233.7696866726312 233.7696866726312 0 0 0 719.8876 1308.4712 " stroke="blue" fill="none" style="stroke-width:1.0;"/>
<path d="M 837.68353 1051.1235 A 201.4613703010589 201.4613703010589 0 0 0 1239.073 1051.1235 " stroke="blue" fill="none" style="stroke-width:1.0;"/>
<path d="M 759.0441 1128.3921 A 223.03007953748929 223.03007953748929 0 0 0 1203.4069 1128.3921 " stroke="blue" fill="none" style="stroke-width:1.0;"/>
<path d="M 720.0175 1053.935 A 233.73395908535934 233.73395908535934 0 0 0 1185.7065 1053.935 " stroke="blue" fill="none" style="stroke-width:1.0;"/>
<path d="M 1328.0465 1316.0271 A 147.6556590692265 147.6556590692265 0 0 0 1033.8589 1316.0271 " stroke="blue" fill="none" style="stroke-width:1.0;"/>
<path d="M 1292.3804 1400.4376 A 169.22436830565684 169.22436830565684 0 0 0 955.2195 1400.4376 " stroke="blue" fill="none" style="stroke-width:1.0;"/>
<path d="M 955.3498 1091.412 A 169.188640718385 169.188640718385 0 0 0 1292.4395 1091.412 " stroke="blue" fill="none" style="stroke-width:1.0;"/>
<path d="M 1239.0139 1418.9976 A 201.49709788833079 201.49709788833079 0 0 0 837.5533 1418.9976 " stroke="blue" fill="none" style="stroke-width:1.0;"/>
<path d="M 1185.6478 1480.7289 A 233.7696866726312 233.7696866726312 0 0 0 719.8876 1480.7289 " stroke="blue" fill="none" style="stroke-width:1.0;"/>
<path d="M 1203.3479 1535.6797 A 223.06580712476114 223.06580712476114 0 0 0 758.9139 1535.6797 " stroke="blue" fill="none" style="stroke-width:1.0;"/>
<path d="M 955.3497 962.11163 A 169.188640718385 169.188640718385 0 0 0 1292.4393 962.11163 " stroke="blue" fill="none" style="stroke-width:1.0;"/>
<path d="M 1292.3802 1270.9229 A 169.22436830565684 169.22436830565684 0 0 0 955.2194 1270.9229 " stroke="blue" fill="none" style="stroke-width:1.0;"/>
<path d="M 1328.0465 1315.9556 A 147.6556590692265 147.6556590692265 0 0 0 1033.8589 1315.9556 " stroke="blue" fill="none" style="stroke-width:1.0;"/>
<path d="M 837.6833 943.4802 A 201.4613703010589 201.4613703010589 0 0 0 1239.0729 943.4802 " stroke="blue" fill="none" style="stroke-width:1.0;"/>
<path d="M 720.0175 881.74896 A 233.73395908535934 233.73395908535934 0 0 0 1185.7065 881.74896 " stroke="blue" fill="none" style="stroke-width:1.0;"/>
<path d="M 759.0438 826.83386 A 223.03007953748929 223.03007953748929 0 0 0 1203.4066 826.83386 " stroke="blue" fill="none" style="stroke-width:1.0;"/>
<path d="M 1329.6074 1318.0386 A 148.0578320232902 148.0578320232902 0 0 0 1034.6185 1318.0386 " stroke="blue" fill="none" style="stroke-width:1.0;"/>
<path d="M 1722.2185 1630.8538 A 255.7405512633286 255.7405512633286 0 0 0 1212.6837 1630.8538 " stroke="blue" fill="none" style="stroke-width:1.0;"/>
<path d="M 1722.2185 1198.4583 A 255.7405512633286 255.7405512633286 0 0 0 1212.6837 1198.4583 " stroke="blue" fill="none" style="stroke-width:1.0;"/>
<path d="M 1329.6074 1314.6785 A 148.0578320232902 148.0578320232902 0 0 0 1034.6185 1314.6785 " stroke="blue" fill="none" style="stroke-width:1.0;"/>
<path d="M 1211.9592 732.8312 A 255.30265072199302 255.30265072199302 0 0 0 1720.6215 732.8312 " stroke="blue" fill="none" style="stroke-width:1.0;"/>
<path d="M 1211.9597 1163.4751 A 255.30265072199302 255.30265072199302 0 0 0 1720.622 1163.4751 " stroke="blue" fill="none" style="stroke-width:1.0;"/>
<path d="M 1488.3524 1268.1873 A 191.5973882506213 191.5973882506213 0 0 0 1106.6158 1268.1873 " stroke="blue" fill="none" style="stroke-width:1.0;"/>
<path d="M 1104.5621 1092.872 A 190.35531779912512 190.35531779912512 0 0 0 1483.824 1092.872 " stroke="blue" fill="none" style="stroke-width:1.0;"/>
<path d="M 1139.9622 987.898 A 211.76309449466194 211.76309449466194 0 0 0 1561.8767 987.898 " stroke="blue" fill="none" style="stroke-width:1.0;"/>
<path d="M 1564.9396 1375.2783 A 212.60315039026455 212.60315039026455 0 0 0 1141.3513 1375.2783 " stroke="blue" fill="none" style="stroke-width:1.0;"/>
<path d="M 1104.5619 922.008 A 190.35531779912512 190.35531779912512 0 0 0 1483.8239 922.008 " stroke="blue" fill="none" style="stroke-width:1.0;"/>
<path d="M 1488.3527 1444.0193 A 191.5973882506213 191.5973882506213 0 0 0 1106.616 1444.0193 " stroke="blue" fill="none" style="stroke-width:1.0;"/>
<path d="M 1329.6074 1316.3585 A 148.0578320232902 148.0578320232902 0 0 0 1034.6185 1316.3585 " stroke="blue" fill="none" style="stroke-width:1.0;"/>
<path d="M 1329.6074 1316.3585 A 148.0578320232902 148.0578320232902 0 0 0 1034.6185 1316.3585 " stroke="blue" fill="none" style="stroke-width:1.0;"/>
<path d="M 1328.1411 1315.9913 A 147.6556590692265 147.6556590692265 0 0 0 1033.9535 1315.9913 " stroke="blue" fill="none" style="stroke-width:1.0;"/>
<path d="M 1104.8944 1178.924 A 190.55625467788516 190.55625467788516 0 0 0 1484.5566 1178.924 " stroke="blue" fill="none" style="stroke-width:1.0;"/>
<path d="M 1683.9248 1697.8573 A 245.23760859421859 245.23760859421859 0 0 0 1195.3159 1697.8573 " stroke="blue" fill="none" style="stroke-width:1.0;"/>
<path d="M 1760.5122 1305.6421 A 266.24349393243864 266.24349393243864 0 0 0 1230.0515 1305.6421 " stroke="blue" fill="none" style="stroke-width:1.0;"/>
<path d="M 1487.6193 1180.8922 A 191.39631057348777 191.39631057348777 0 0 0 1106.2833 1180.8922 " stroke="blue" fill="none" style="stroke-width:1.0;"/>
<path d="M 1194.2592 667.0517 A 244.59877117412296 244.59877117412296 0 0 0 1681.5952 667.0517 " stroke="blue" fill="none" style="stroke-width:1.0;"/>
<path d="M 1229.6597 1056.7467 A 266.00654786965976 266.00654786965976 0 0 0 1759.6483 1056.7467 " stroke="blue" fill="none" style="stroke-width:1.0;"/>
<path d="M 1566.9918 1179.2144 A 213.16609748705164 213.16609748705164 0 0 0 1142.282 1179.2144 " stroke="blue" fill="none" style="stroke-width:1.0;"/>
<path d="M 1068.5634 1048.2594 A 168.58553088556124 168.58553088556124 0 0 0 1404.4514 1048.2594 " stroke="blue" fill="none" style="stroke-width:1.0;"/>
<path d="M 1086.2634 1017.54144 A 179.2894104334313 179.2894104334313 0 0 0 1443.4778 1017.54144 " stroke="blue" fill="none" style="stroke-width:1.0;"/>
<path d="M 1681.8728 1404.5547 A 244.67480229580497 244.67480229580497 0 0 0 1194.3853 1404.5547 " stroke="blue" fill="none" style="stroke-width:1.0;"/>
<path d="M 1068.5634 1006.3654 A 168.58553088556124 168.58553088556124 0 0 0 1404.4513 1006.3654 " stroke="blue" fill="none" style="stroke-width:1.0;"/>
<path d="M 1409.7131 1358.8046 A 170.0286966139876 170.0286966139876 0 0 0 1070.9498 1358.8046 " stroke="blue" fill="none" style="stroke-width:1.0;"/>
<path d="M 1487.6195 1443.4336 A 191.39631057348777 191.39631057348777 0 0 0 1106.2834 1443.4336 " stroke="blue" fill="none" style="stroke-width:1.0;"/>
<path d="M 1487.6193 1268.4059 A 191.39631057348777 191.39631057348777 0 0 0 1106.2833 1268.4059 " stroke="blue" fill="none" style="stroke-width:1.0;"/>
<path d="M 1140.6272 987.5309 A 212.16524984892897 212.16524984892897 0 0 0 1563.343 987.5309 " stroke="blue" fill="none" style="stroke-width:1.0;"/>
<path d="M 1487.6195 1530.9474 A 191.39631057348777 191.39631057348777 0 0 0 1106.2834 1530.9474 " stroke="blue" fill="none" style="stroke-width:1.0;"/>
<path d="M 1760.5122 1542.845 A 266.24349393243864 266.24349393243864 0 0 0 1230.0515 1542.845 " stroke="blue" fill="none" style="stroke-width:1.0;"/>
<path d="M 1683.9243 1112.2795 A 245.23760859421859 245.23760859421859 0 0 0 1195.3156 1112.2795 " stroke="blue" fill="none" style="stroke-width:1.0;"/>
<path d="M 1104.8942 835.58905 A 190.55625467788516 190.55625467788516 0 0 0 1484.5565 835.58905 " stroke="blue" fill="none" style="stroke-width:1.0;"/>
<path d="M 1229.6592 820.0177 A 266.00654786965976 266.00654786965976 0 0 0 1759.6478 820.0177 " stroke="blue" fill="none" style="stroke-width:1.0;"/>
<path d="M 1194.2596 1248.7966 A 244.59877117412296 244.59877117412296 0 0 0 1681.5956 1248.7966 " stroke="blue" fill="none" style="stroke-width:1.0;"/>
<path d="M 1409.7126 1314.0244 A 170.02853821581743 170.02853821581743 0 0 0 1070.9496 1314.0244 " stroke="blue" fill="none" style="stroke-width:1.0;"/>
<path d="M 1140.5608 1181.0225 A 212.12510471268902 212.12510471268902 0 0 0 1563.1967 1181.0225 " stroke="blue" fill="none" style="stroke-width:1.0;"/>
<path d="M 1193.6608 958.25446 A 244.23691935426606 244.23691935426606 0 0 0 1680.2759 958.25446 " stroke="blue" fill="none" style="stroke-width:1.0;"/>
<path d="M 1448.0063 1346.0018 A 180.53149848472415 180.53149848472415 0 0 0 1088.3174 1346.0018 " stroke="blue" fill="none" style="stroke-width:1.0;"/>
<path d="M 1140.5605 794.1126 A 212.12510471268902 212.12510471268902 0 0 0 1563.1964 794.1126 " stroke="blue" fill="none" style="stroke-width:1.0;"/>
<path d="M 1566.9921 1572.37 A 213.16609748705164 213.16609748705164 0 0 0 1142.2822 1572.37 " stroke="blue" fill="none" style="stroke-width:1.0;"/>
<path d="M 1104.8942 921.4227 A 190.55625467788516 190.55625467788516 0 0 0 1484.5565 921.4227 " stroke="blue" fill="none" style="stroke-width:1.0;"/>
<path d="M 1104.8944 1093.0903 A 190.55625467788516 190.55625467788516 0 0 0 1484.5566 1093.0903 " stroke="blue" fill="none" style="stroke-width:1.0;"/>
<path d="M 1563.4733 1374.9111 A 212.20099503599752 212.20099503599752 0 0 0 1140.6863 1374.9111 " stroke="blue" fill="none" style="stroke-width:1.0;"/>
<path d="M 1408.98 1358.4199 A 169.8276013370574 169.8276013370574 0 0 0 1070.6173 1358.4199 " stroke="blue" fill="none" style="stroke-width:1.0;"/>
<path d="M 1068.8955 1005.9811 A 168.78646776432126 168.78646776432126 0 0 0 1405.184 1005.9811 " stroke="blue" fill="none" style="stroke-width:1.0;"/>
<path d="M 1330.3406 1316.542 A 148.25890970042371 148.25890970042371 0 0 0 1034.951 1316.542 " stroke="blue" fill="none" style="stroke-width:1.0;"/>
<path d="M 1526.6459 1420.1511 A 202.10019012135783 202.10019012135783 0 0 0 1123.9835 1420.1511 " stroke="blue" fill="none" style="stroke-width:1.0;"/>
<path d="M 1643.5791 1481.498 A 234.17184202689825 234.17184202689825 0 0 0 1177.0176 1481.498 " stroke="blue" fill="none" style="stroke-width:1.0;"/>
<path d="M 1605.2853 1537.4363 A 223.6688993577882 223.6688993577882 0 0 0 1159.6498 1537.4363 " stroke="blue" fill="none" style="stroke-width:1.0;"/>
<path d="M 1122.262 944.2495 A 201.0591973469952 201.0591973469952 0 0 0 1522.8501 944.2495 " stroke="blue" fill="none" style="stroke-width:1.0;"/>
<path d="M 1175.9606 882.1336 A 233.53286380842914 233.53286380842914 0 0 0 1641.249 882.1336 " stroke="blue" fill="none" style="stroke-width:1.0;"/>
<path d="M 1158.2606 827.4196 A 222.82898426055908 222.82898426055908 0 0 0 1602.2227 827.4196 " stroke="blue" fill="none" style="stroke-width:1.0;"/>
<path d="M 1330.3406 1317.7842 A 148.25890970042371 148.25890970042371 0 0 0 1034.951 1317.7842 " stroke="blue" fill="none" style="stroke-width:1.0;"/>
<path d="M 1408.98 1402.798 A 169.8276013370574 169.8276013370574 0 0 0 1070.6173 1402.798 " stroke="blue" fill="none" style="stroke-width:1.0;"/>
<path d="M 1068.8956 1090.5726 A 168.78646776432126 168.78646776432126 0 0 0 1405.184 1090.5726 " stroke="blue" fill="none" style="stroke-width:1.0;"/>
<path d="M 1122.2622 1051.0885 A 201.0591973469952 201.0591973469952 0 0 0 1522.8503 1051.0885 " stroke="blue" fill="none" style="stroke-width:1.0;"/>
<path d="M 1158.2609 1128.1736 A 222.82898426055908 222.82898426055908 0 0 0 1602.223 1128.1736 " stroke="blue" fill="none" style="stroke-width:1.0;"/>
<path d="M 1175.9609 1053.9176 A 233.53286380842914 233.53286380842914 0 0 0 1641.2494 1053.9176 " stroke="blue" fill="none" style="stroke-width:1.0;"/>
<path d="M 1605.285 1233.3229 A 223.6688993577882 223.6688993577882 0 0 0 1159.6494 1233.3229 " stroke="blue" fill="none" style="stroke-width:1.0;"/>
<path d="M 1643.5791 1308.4362 A 234.17184202689825 234.17184202689825 0 0 0 1177.0176 1308.4362 " stroke="blue" fill="none" style="stroke-width:1.0;"/>
<path d="M 1526.6459 1311.2302 A 202.10019012135783 202.10019012135783 0 0 0 1123.9835 1311.2302 " stroke="blue" fill="none" style="stroke-width:1.0;"/>
<path d="M 1330.3406 1315.2998 A 148.25890970042371 148.25890970042371 0 0 0 1034.951 1315.2998 " stroke="blue" fill="none" style="stroke-width:1.0;"/>
<path d="M 1068.8955 963.68524 A 168.78646776432126 168.78646776432126 0 0 0 1405.184 963.68524 " stroke="blue" fill="none" style="stroke-width:1.0;"/>
<path d="M 1408.98 1269.6638 A 169.8276013370574 169.8276013370574 0 0 0 1070.6172 1269.6638 " stroke="blue" fill="none" style="stroke-width:1.0;"/>
<path d="M 1389.5112 1354.2236 A 189.53828243758736 189.53828243758736 0 0 0 1011.8772 1354.2236 " stroke="blue" fill="none" style="stroke-width:1.0;"/>
<path d="M 1350.1228 1354.2236 A 189.53828243758736 189.53828243758736 0 0 0 972.4887 1354.2236 " stroke="blue" fill="none" style="stroke-width:1.0;"/>
<path d="M 1432.8052 1381.1777 A 219.06584853262413 219.06584853262413 0 0 0 996.34064 1381.1777 " stroke="blue" fill="none" style="stroke-width:1.0;"/>
<path d="M 1365.6593 1381.1777 A 219.06584853262413 219.06584853262413 0 0 0 929.1949 1381.1777 " stroke="blue" fill="none" style="stroke-width:1.0;"/>
<path d="M 738.64844 1105.4895 A 147.63779527559055 147.63779527559055 0 0 0 1032.8004 1105.4895 " stroke="blue" fill="none" style="stroke-width:1.0;"/>
<path d="M 1329.1996 1105.4895 A 147.63779527559055 147.63779527559055 0 0 0 1623.3516 1105.4895 " stroke="blue" fill="none" style="stroke-width:1.0;"/>
<path d="M 1018.28467 1043.146 A 152.857525376823 152.857525376823 0 0 0 1322.8364 1043.146 " stroke="blue" fill="none" style="stroke-width:1.0;"/>
<path d="M 1039.1636 1043.146 A 152.857525376823 152.857525376823 0 0 0 1343.7153 1043.146 " stroke="blue" fill="none" style="stroke-width:1.0;"/>
<path d="M 1011.80646 1039.6959 A 155.0196779994514 155.0196779994514 0 0 0 1320.666 1039.6959 " stroke="blue" fill="none" style="stroke-width:1.0;"/>
<path d="M 1041.334 1039.6959 A 155.0196779994514 155.0196779994514 0 0 0 1350.1936 1039.6959 " stroke="blue" fill="none" style="stroke-width:1.0;"/>
<path d="M 1018.28467 1040.1932 A 152.857525376823 152.857525376823 0 0 0 1322.8364 1040.1932 " stroke="blue" fill="none" style="stroke-width:1.0;"/>
<path d="M 1039.1636 1040.1932 A 152.857525376823 152.857525376823 0 0 0 1343.7153 1040.1932 " stroke="blue" fill="none" style="stroke-width:1.0;"/>
<path d="M 738.64844 987.3793 A 147.63779527559055 147.63779527559055 0 0 0 1032.8004 987.3793 " stroke="blue" fill="none" style="stroke-width:1.0;"/>
<path d="M 1329.1996 987.3793 A 147.63779527559055 147.63779527559055 0 0 0 1623.3516 987.3793 " stroke="blue" fill="none" style="stroke-width:1.0;"/>
<path d="M 1322.8364 1319.2634 A 152.857525376823 152.857525376823 0 0 0 1018.28467 1319.2634 " stroke="blue" fill="none" style="stroke-width:1.0;"/>
<path d="M 1343.7153 1319.2634 A 152.857525376823 152.857525376823 0 0 0 1039.1636 1319.2634 " stroke="blue" fill="none" style="stroke-width:1.0;"/>
<path d="M 1320.666 1322.7135 A 155.0196779994514 155.0196779994514 0 0 0 1011.80646 1322.7135 " stroke="blue" fill="none" style="stroke-width:1.0;"/>
<path d="M 1350.1936 1322.7135 A 155.0196779994514 155.0196779994514 0 0 0 1041.334 1322.7135 " stroke="blue" fill="none" style="stroke-width:1.0;"/>
<path d="M 1322.8364 1322.2162 A 152.857525376823 152.857525376823 0 0 0 1018.28467 1322.2162 " stroke="blue" fill="none" style="stroke-width:1.0;"/>
<path d="M 1343.7153 1322.2162 A 152.857525376823 152.857525376823 0 0 0 1039.1636 1322.2162 " stroke="blue" fill="none" style="stroke-width:1.0;"/>
<!-- radmm = 25.0 -->
<!-- adjustFr = 1.0 -->
<!-- adjustBa = 1.0 -->
<!-- scArcfr = 0.2 -->
<!-- scArcBa = 0.1 -->
<!-- ang = 170.0 -->
</svg>
